<svg width="182" height="84" viewBox="0 0 182 84" fill="none" xmlns="http://www.w3.org/2000/svg">
<path d="M3.15101 25.7859L0.0500617 19.1989C0.012845 19.1217 -0.00409584 19.0363 0.000836466 18.9507C0.00576877 18.8651 0.0324126 18.7822 0.0782541 18.7098C0.124096 18.6374 0.187625 18.5778 0.262852 18.5368C0.33808 18.4957 0.422527 18.4745 0.508231 18.4751H23.5561C23.6532 18.4756 23.748 18.504 23.8292 18.557C23.9105 18.61 23.9747 18.6853 24.0143 18.7739L27.0621 25.3609C27.0963 25.4385 27.1106 25.5233 27.1038 25.6078C27.097 25.6923 27.0693 25.7737 27.0232 25.8449C26.9771 25.916 26.914 25.9745 26.8397 26.0152C26.7654 26.0559 26.6821 26.0775 26.5973 26.078H22.8523C22.77 26.0777 22.6888 26.0975 22.6159 26.1357C22.543 26.1739 22.4805 26.2293 22.434 26.2972C16.8082 34.1986 13.8388 43.6834 13.9545 53.3823C13.9268 54.7583 14.0023 56.1344 14.1803 57.4992C14.4802 60.7318 15.5528 63.845 17.3078 66.5762C18.0714 67.7449 18.4764 68.3558 18.5296 68.4023C18.5827 68.4488 18.6823 68.5816 18.835 68.7874C21.3715 71.833 23.99 73.8405 26.6903 74.81C26.6862 74.8207 26.6862 74.8325 26.6903 74.8432C26.76 74.8493 26.8267 74.8746 26.8829 74.9163C26.9368 74.9628 27.0043 74.9907 27.0754 74.9959C28.3524 75.5235 29.6911 75.8872 31.0595 76.0783C31.228 76.1539 31.4141 76.1814 31.5973 76.158C32.4276 76.305 33.272 76.3563 34.114 76.3107C35.0473 76.323 35.98 76.2586 36.9028 76.1181C37.4192 76.0324 37.9294 75.9126 38.43 75.7595C38.5453 75.7239 38.6694 75.7295 38.781 75.7756C38.8925 75.8217 38.9845 75.9052 39.0409 76.0119L42.2149 82.2802C42.2489 82.3494 42.267 82.4254 42.2678 82.5026C42.2687 82.5798 42.2523 82.6561 42.2198 82.7261C42.1874 82.7962 42.1397 82.858 42.0802 82.9072C42.0208 82.9564 41.9511 82.9918 41.8763 83.0106C39.1038 83.638 36.2725 83.9697 33.43 84C32.0961 84.0018 30.764 83.8997 29.4459 83.6945C23.7017 82.6459 18.455 79.7556 14.499 75.4607C9.10721 69.706 6.41131 62.207 6.41131 52.964C6.29708 43.8644 8.49016 34.8842 12.7858 26.8616C12.8288 26.7845 12.8508 26.6974 12.8497 26.6092C12.8485 26.5209 12.8242 26.4344 12.7791 26.3585C12.7341 26.2826 12.6699 26.2198 12.5931 26.1764C12.5162 26.133 12.4292 26.1105 12.341 26.1113H3.5959C3.49863 26.1044 3.40528 26.0702 3.32658 26.0127C3.24787 25.9551 3.18702 25.8765 3.15101 25.7859Z" fill="#E44256"/>
<path d="M54.7713 65.0955V46.4699C54.7716 46.3994 54.7581 46.3294 54.7315 46.2641C54.0674 44.6505 52.9585 43.8205 51.4114 43.7674C50.6798 43.7215 49.9528 43.9124 49.3381 44.3118C48.7234 44.7113 48.2536 45.298 47.9984 45.9852C47.9921 46.0315 47.9921 46.0784 47.9984 46.1247L47.8523 47.8112C47.2414 53.3093 45.0789 57.2934 41.3649 59.7635C38.9489 61.2818 36.0558 61.8506 33.2449 61.36C30.4339 60.8695 27.9046 59.3543 26.1457 57.1074C26.0715 57.01 26.0354 56.8889 26.0439 56.7667C26.0525 56.6445 26.1051 56.5296 26.1921 56.4434L30.4352 52.1406C30.5229 52.0559 30.6381 52.0052 30.7598 51.9979C30.8816 51.9906 31.002 52.0271 31.0992 52.1008C31.8071 52.6849 32.5884 53.1738 33.4233 53.555C33.8053 53.7393 34.2212 53.8432 34.645 53.8604C35.3429 53.9093 36.0441 53.8647 36.73 53.7276C36.7888 53.7154 36.845 53.6929 36.896 53.6612C37.0025 53.598 37.1026 53.5246 37.1949 53.4421C37.3648 53.2982 37.547 53.1693 37.7393 53.057C38.0857 52.8223 38.3852 52.5251 38.6225 52.1805C39.0404 51.6906 39.3504 51.1182 39.5322 50.5005C39.9323 49.4686 40.2152 48.395 40.3755 47.3C40.3629 47.1067 40.3877 46.9128 40.4485 46.7289C40.5208 46.2902 40.5475 45.8451 40.5282 45.4009C40.5282 42.1384 39.4591 39.6018 37.321 37.7913C36.2055 36.8816 34.4458 36.191 32.062 35.7328C31.9291 35.7452 31.7951 35.727 31.6703 35.6797C31.624 35.6734 31.5771 35.6734 31.5308 35.6797L30.0899 35.62C29.9946 35.6156 29.9025 35.5847 29.8239 35.5307C29.7453 35.4767 29.6833 35.4018 29.645 35.3145L27.1018 29.4048C27.0576 29.3023 27.0486 29.1881 27.0763 29.0799C27.1039 28.9718 27.1666 28.8759 27.2546 28.8072C27.9448 28.2433 28.5606 27.594 29.0872 26.8749C29.1403 26.7988 29.1716 26.7097 29.1778 26.6171C29.1841 26.5246 29.165 26.4321 29.1227 26.3495C29.0804 26.267 29.0165 26.1975 28.9377 26.1485C28.8589 26.0995 28.7683 26.0729 28.6756 26.0714H24.22C24.1187 26.071 24.0198 26.0405 23.9359 25.9837C23.8519 25.927 23.7867 25.8466 23.7486 25.7527L21.0925 19.1657C21.0689 19.0904 21.063 19.0108 21.0754 18.9329C21.0877 18.855 21.1178 18.781 21.1635 18.7167C21.2091 18.6524 21.269 18.5996 21.3385 18.5622C21.408 18.5249 21.4852 18.5042 21.564 18.5017H65.3889C65.4934 18.5033 65.5951 18.5365 65.6804 18.5969C65.7657 18.6574 65.8308 18.7422 65.867 18.8403L68.2176 25.4273C68.2428 25.5031 68.2497 25.5838 68.2376 25.6628C68.2256 25.7418 68.195 25.8168 68.1483 25.8816C68.1016 25.9464 68.0402 25.9992 67.9691 26.0357C67.8981 26.0722 67.8194 26.0912 67.7395 26.0914H62.8191C62.6847 26.0931 62.5563 26.1477 62.4619 26.2434C62.3674 26.3391 62.3145 26.4682 62.3145 26.6026V62.0743C62.315 62.1715 62.2878 62.2669 62.2361 62.3492C62.1843 62.4315 62.1102 62.4974 62.0223 62.5391L55.4818 65.5736C55.4036 65.6086 55.3178 65.6231 55.2324 65.6158C55.1471 65.6084 55.065 65.5795 54.9939 65.5317C54.9228 65.4838 54.8651 65.4187 54.8262 65.3424C54.7872 65.2661 54.7683 65.1811 54.7713 65.0955ZM45.9997 36.9679C46.0585 37.0855 46.1598 37.1763 46.2831 37.2219C46.4065 37.2675 46.5425 37.2646 46.6637 37.2136C48.9843 36.0861 51.6547 35.9145 54.1006 36.7355C54.1764 36.7607 54.2571 36.7676 54.3361 36.7556C54.4151 36.7435 54.49 36.7129 54.5549 36.6662C54.6197 36.6195 54.6725 36.5581 54.709 36.4871C54.7455 36.416 54.7645 36.3373 54.7647 36.2574V26.5827C54.7647 26.4483 54.7117 26.3192 54.6173 26.2235C54.5228 26.1278 54.3945 26.0732 54.26 26.0714H38.1245C38.0186 26.0716 37.9155 26.105 37.8297 26.167C37.7439 26.2289 37.6798 26.3163 37.6464 26.4167C37.3843 27.1561 37.0828 27.8809 36.7433 28.588C36.7098 28.6521 36.6907 28.7227 36.6872 28.7948C36.6837 28.867 36.696 28.9391 36.7231 29.0061C36.7503 29.0731 36.7917 29.1333 36.8445 29.1827C36.8973 29.232 36.9602 29.2693 37.0288 29.2919C38.9601 29.9093 40.7484 30.9064 42.2889 32.2246C43.8295 33.5427 45.0911 35.1554 45.9997 36.9679Z" fill="#E44256"/>
<path d="M96.1526 65.547C96.0754 65.5842 95.99 65.6012 95.9045 65.5962C95.8189 65.5913 95.736 65.5647 95.6636 65.5188C95.5912 65.473 95.5316 65.4094 95.4906 65.3342C95.4495 65.259 95.4283 65.1745 95.4289 65.0888V59.8631H95.3558C93.0141 57.6851 91.0043 56.2862 89.3266 55.6665H89.2934C87.8231 55.024 86.2898 54.5366 84.7183 54.2123C83.6475 53.9471 82.5573 53.7673 81.458 53.6744C81.2986 53.6946 81.1368 53.6668 80.9932 53.5948C80.6883 53.6003 80.3836 53.5758 80.0835 53.5217C77.3544 53.2893 74.612 53.1831 71.8763 53.2096C71.7469 53.2116 71.6217 53.1638 71.5265 53.076C71.4313 52.9883 71.3735 52.8673 71.365 52.7382C71.1459 49.3849 70.9998 47.2401 70.9135 46.2972C70.907 46.2272 70.9153 46.1565 70.9377 46.0898C70.9601 46.0231 70.9963 45.9619 71.0438 45.91C71.0913 45.8581 71.1492 45.8167 71.2137 45.7885C71.2781 45.7602 71.3478 45.7458 71.4181 45.7461C71.7219 45.7515 72.0257 45.7382 72.3278 45.7063C72.5483 45.682 72.7701 45.6709 72.9919 45.6731C73.185 45.6732 73.3772 45.6464 73.5629 45.5934C77.2681 44.8718 80.0393 43.5438 81.8764 41.6093C81.9127 41.5809 81.9384 41.5412 81.9494 41.4964C81.9494 41.4964 81.9494 41.4566 82.0291 41.4566C82.539 40.5225 82.7997 39.4729 82.7861 38.4088C82.7861 34.9559 79.6408 33.2272 73.3504 33.2228L70.8072 33.3556C70.7259 33.3619 70.6444 33.3475 70.5701 33.3138C70.4958 33.2802 70.4312 33.2283 70.3823 33.1631L67.6864 29.6836C67.6122 29.5861 67.5761 29.465 67.5846 29.3429C67.5932 29.2207 67.6459 29.1058 67.7329 29.0196L69.7249 27.0276C69.7952 26.9561 69.843 26.8655 69.8622 26.7671C69.8815 26.6687 69.8714 26.5668 69.8332 26.4741C69.7949 26.3814 69.7303 26.302 69.6473 26.2457C69.5643 26.1895 69.4666 26.1589 69.3663 26.1577H66.1459C66.0419 26.1576 65.9404 26.1257 65.855 26.0664C65.7696 26.0071 65.7043 25.9231 65.6678 25.8257L63.2906 19.2387C63.2669 19.1629 63.2611 19.0827 63.2738 19.0043C63.2865 18.9259 63.3172 18.8516 63.3636 18.7871C63.41 18.7227 63.4708 18.6699 63.5411 18.6331C63.6114 18.5962 63.6893 18.5762 63.7687 18.5747H125.084C125.185 18.5733 125.285 18.6031 125.369 18.6601C125.454 18.7171 125.519 18.7985 125.555 18.8934L128.211 25.4804C128.236 25.5557 128.243 25.6358 128.232 25.7143C128.22 25.7927 128.19 25.8673 128.144 25.932C128.098 25.9967 128.037 26.0496 127.967 26.0865C127.897 26.1234 127.819 26.1433 127.74 26.1444H80.4554C80.3233 26.1446 80.1967 26.1971 80.1034 26.2905L79.2801 27.0741C79.2098 27.1398 79.1597 27.2242 79.1358 27.3174C79.1119 27.4106 79.1152 27.5087 79.1452 27.6001C79.1752 27.6915 79.2307 27.7725 79.3052 27.8334C79.3797 27.8943 79.47 27.9326 79.5656 27.9439C81.1685 28.085 82.7381 28.4841 84.2137 29.1259C86.1726 30.1167 87.7537 31.721 88.7157 33.6943C89.57 35.4813 90.0125 37.4373 90.0105 39.4181C90.0362 40.8401 89.7789 42.2531 89.2535 43.5748C88.8333 44.6359 88.2484 45.6241 87.5205 46.5031C87.4632 46.5683 87.4237 46.6471 87.4057 46.732C87.3878 46.8169 87.392 46.9049 87.4181 46.9877C87.4441 47.0705 87.491 47.1451 87.5543 47.2045C87.6176 47.2638 87.6952 47.3058 87.7794 47.3265C90.1737 47.9501 92.4902 48.841 94.6852 49.9825C94.7628 50.0222 94.8493 50.0413 94.9365 50.0381C95.0236 50.0348 95.1084 50.0094 95.183 49.9642C95.2575 49.9189 95.3192 49.8554 95.3622 49.7796C95.4053 49.7037 95.4282 49.6182 95.4289 49.531V28.256C95.4289 28.1222 95.482 27.9938 95.5767 27.8992C95.6713 27.8045 95.7997 27.7514 95.9335 27.7514H96.5975C100.779 27.6921 104.959 27.9965 109.088 28.661C114.94 29.8386 118.984 32.7912 121.219 37.519C122.127 39.4225 122.594 41.5059 122.587 43.6146C122.587 48.9267 120.595 52.4859 116.611 54.292C114.865 54.9967 113.002 55.3661 111.12 55.381C109.637 55.4076 108.179 55.0089 106.916 54.2322C106.366 53.8557 105.839 53.4478 105.336 53.0104C105.281 52.9622 105.238 52.9029 105.208 52.8365C105.178 52.7701 105.163 52.6981 105.163 52.6253V45.952C105.163 45.848 105.195 45.7465 105.255 45.6611C105.314 45.5756 105.398 45.5103 105.495 45.4739L111.963 43.1033C112.039 43.0796 112.119 43.0739 112.197 43.0865C112.276 43.0992 112.35 43.1299 112.414 43.1763C112.479 43.2227 112.532 43.2835 112.568 43.3538C112.605 43.4241 112.625 43.5021 112.627 43.5814V47.3862C112.625 47.4672 112.642 47.5475 112.678 47.6203C112.713 47.6931 112.766 47.7563 112.831 47.8045C112.896 47.8527 112.972 47.8845 113.052 47.8972C113.132 47.9099 113.214 47.9032 113.291 47.8776C113.993 47.6342 114.577 47.1335 114.924 46.4765C114.938 46.4535 114.949 46.429 114.958 46.4035L115.622 44.8364V44.5907C115.742 43.9115 115.793 43.2218 115.774 42.5323C115.522 38.3623 111.795 35.8944 104.592 35.1285H103.47C103.336 35.1285 103.207 35.1815 103.111 35.2759C103.015 35.3704 102.961 35.4987 102.959 35.6332V62.0344C102.959 62.1307 102.933 62.2253 102.882 62.3074C102.832 62.3895 102.759 62.4559 102.673 62.4992L96.1526 65.547Z" fill="#E44256"/>
<path d="M128.829 17.3795C128.829 16.5827 128.829 15.7859 128.756 15.0621C128.753 15.0312 128.753 15 128.756 14.9691C129.013 12.7027 129.792 10.5265 131.03 8.61083C132.268 6.69517 133.933 5.09196 135.894 3.92658C140.066 1.29964 144.909 -0.0633408 149.838 0.00226139C154.384 -0.0072278 158.891 0.846775 163.119 2.51887C168.072 4.28958 172.942 6.24621 177.727 8.38876C177.791 8.41804 177.849 8.46061 177.896 8.51371C177.943 8.5668 177.979 8.62921 178 8.69688C178.021 8.76455 178.028 8.83596 178.02 8.90643C178.012 8.97691 177.989 9.04488 177.953 9.10589L174.646 14.7035C174.58 14.8141 174.476 14.8964 174.353 14.9344C174.231 14.9724 174.098 14.9635 173.982 14.9094C170.038 13.1387 165.879 11.4698 161.505 9.90271C157.421 8.25605 153.053 7.42588 148.65 7.45914H148.577C143.889 8.02577 140.367 9.47331 138.012 11.8018C137.439 12.4021 136.976 13.0989 136.644 13.8602C136.485 14.159 136.412 15.3343 136.412 17.3662V17.9439C136.412 18.0784 136.465 18.2074 136.559 18.3031C136.654 18.3988 136.782 18.4535 136.917 18.4552H139.5C139.601 18.4556 139.7 18.4862 139.784 18.5429C139.868 18.5997 139.933 18.6801 139.971 18.7739L142.627 25.3609C142.657 25.4381 142.668 25.5213 142.659 25.6036C142.65 25.6859 142.621 25.7647 142.574 25.8333C142.528 25.9019 142.466 25.9582 142.393 25.9973C142.32 26.0365 142.238 26.0574 142.156 26.0582H136.91C136.776 26.0582 136.648 26.1113 136.553 26.206C136.458 26.3006 136.405 26.429 136.405 26.5628V62.0411C136.405 62.1373 136.378 62.2316 136.326 62.3128C136.274 62.394 136.2 62.4587 136.113 62.4992L129.579 65.5338C129.502 65.571 129.417 65.5879 129.331 65.583C129.245 65.5781 129.163 65.5514 129.09 65.5056C129.018 65.4597 128.958 65.3962 128.917 65.321C128.876 65.2458 128.855 65.1613 128.855 65.0756V26.5628C128.855 26.4283 128.802 26.2993 128.708 26.2036C128.614 26.1079 128.485 26.0533 128.351 26.0515H125.788C125.682 26.0524 125.578 26.0194 125.492 25.9573C125.406 25.8951 125.342 25.8072 125.31 25.7062L123.065 19.1192C123.04 19.0434 123.033 18.9627 123.045 18.8838C123.057 18.8048 123.088 18.7298 123.135 18.665C123.181 18.6002 123.243 18.5473 123.314 18.5109C123.385 18.4744 123.463 18.4553 123.543 18.4552H128.351C128.485 18.4552 128.613 18.402 128.708 18.3074C128.802 18.2128 128.855 18.0844 128.855 17.9506L128.829 17.3795Z" fill="#E44256"/>
<path d="M168.045 65.0954V58.2362C168.045 58.15 168.022 58.0654 167.981 57.9901C167.939 57.9147 167.879 57.851 167.806 57.8046C164.454 55.6621 160.808 54.0181 156.983 52.9241C154.658 52.1127 152.226 51.6496 149.765 51.5496H149.705L148.59 51.6226L146.996 51.689C146.922 51.6921 146.848 51.6788 146.779 51.6501C146.71 51.6214 146.648 51.578 146.598 51.523L142.023 46.5894C141.942 46.4974 141.898 46.3795 141.898 46.2574C141.898 46.1353 141.942 46.0173 142.023 45.9254C148.251 38.183 156.833 31.8815 167.767 27.0209C167.857 26.9812 167.934 26.9161 167.988 26.8337C168.042 26.7512 168.071 26.6548 168.072 26.5561C168.07 26.4216 168.016 26.2933 167.92 26.1988C167.824 26.1044 167.695 26.0514 167.561 26.0514H140.117C140.022 26.0506 139.929 26.0235 139.848 25.9731C139.767 25.9227 139.702 25.851 139.659 25.7659L136.425 19.1988C136.386 19.1214 136.368 19.0352 136.372 18.9487C136.377 18.8622 136.403 18.7782 136.449 18.7048C136.495 18.6315 136.559 18.5712 136.635 18.5298C136.711 18.4884 136.797 18.4672 136.883 18.4684H178.676C178.775 18.469 178.871 18.4982 178.954 18.5524C179.036 18.6066 179.101 18.6835 179.141 18.7739L181.963 25.3609C181.998 25.438 182.012 25.5226 182.006 25.6068C181.999 25.6911 181.971 25.7723 181.925 25.843C181.879 25.9137 181.815 25.9717 181.741 26.0116C181.666 26.0515 181.583 26.072 181.498 26.0714H176.12C175.986 26.0714 175.858 26.1245 175.763 26.2192C175.668 26.3138 175.615 26.4422 175.615 26.576V62.0543C175.616 62.1507 175.589 62.2454 175.537 62.3267C175.485 62.408 175.411 62.4726 175.323 62.5124L168.763 65.5669C168.685 65.6031 168.599 65.6188 168.513 65.6125C168.427 65.6062 168.345 65.5782 168.273 65.5309C168.201 65.4837 168.142 65.4189 168.103 65.3427C168.063 65.2665 168.043 65.1814 168.045 65.0954ZM160.17 64.2123C160.136 64.2776 160.088 64.3347 160.029 64.3796C159.971 64.4245 159.903 64.4563 159.832 64.4727C159.76 64.4891 159.685 64.4898 159.613 64.4746C159.541 64.4595 159.473 64.4289 159.413 64.385C158.686 63.8523 157.93 63.3602 157.149 62.9108L156.571 62.5523H156.512C154.809 61.7549 152.96 61.3186 151.08 61.2707C151.002 61.2662 150.927 61.2441 150.859 61.2059C150.791 61.1678 150.733 61.1147 150.689 61.0507C150.644 60.9866 150.615 60.9133 150.604 60.8364C150.592 60.7595 150.598 60.6809 150.622 60.6067L152.972 54.4779C153.011 54.375 153.081 54.2871 153.173 54.2273C153.265 54.1675 153.374 54.139 153.484 54.1459C156.956 54.3894 160.274 55.6737 163.006 57.8311C163.099 57.9035 163.164 58.0066 163.188 58.1222C163.212 58.2377 163.195 58.3581 163.138 58.462L160.17 64.2123ZM168.045 48.4154V35.9585C168.045 35.8717 168.023 35.7863 167.981 35.7104C167.939 35.6346 167.878 35.5707 167.804 35.5249C167.73 35.479 167.646 35.4527 167.559 35.4484C167.473 35.4441 167.386 35.462 167.308 35.5004C162.709 37.7045 158.387 40.4461 154.433 43.6677C154.36 43.7301 154.307 43.8117 154.278 43.9032C154.249 43.9948 154.247 44.0925 154.271 44.1853C154.295 44.2781 154.345 44.3622 154.415 44.428C154.485 44.4939 154.572 44.5387 154.666 44.5575C159.052 45.405 163.298 46.8599 167.282 48.8802C167.361 48.9253 167.451 48.9484 167.542 48.947C167.633 48.9456 167.723 48.9199 167.8 48.8725C167.878 48.8251 167.942 48.7577 167.985 48.6773C168.028 48.597 168.049 48.5065 168.045 48.4154Z" fill="#E44256"/>
<path d="M103.689 79.5046L95.9137 74.146C95.8262 74.0841 95.76 73.9966 95.7243 73.8955C95.6886 73.7944 95.6852 73.6847 95.7145 73.5816L97.1753 68.5484C97.1989 68.4703 97.2409 68.3989 97.2977 68.3403C97.3545 68.2817 97.4245 68.2376 97.5019 68.2116C97.5792 68.1856 97.6617 68.1785 97.7423 68.1909C97.823 68.2032 97.8995 68.2348 97.9655 68.2828L105.841 74.0464C105.928 74.1093 105.993 74.199 106.026 74.302C106.058 74.405 106.056 74.5157 106.02 74.6175L104.46 79.2655C104.433 79.3392 104.39 79.4057 104.334 79.4597C104.277 79.5138 104.209 79.5541 104.134 79.5773C104.059 79.6004 103.98 79.6059 103.903 79.5933C103.826 79.5807 103.753 79.5503 103.689 79.5046Z" fill="#E44256"/>
</svg>
