<svg width="114" height="114" viewBox="0 0 114 114" fill="none" xmlns="http://www.w3.org/2000/svg">
<g clip-path="url(#clip0_1_85)">
<path d="M57.0017 113.667C88.2985 113.667 113.67 88.3747 113.67 57.1747C113.67 25.9747 88.2985 0.682129 57.0017 0.682129C25.7049 0.682129 0.333771 25.9747 0.333771 57.1747C0.333771 88.3747 25.7049 113.667 57.0017 113.667Z" fill="#E44256"/>
<path d="M103.803 89.0113C103.723 89.131 103.643 89.2442 103.563 89.3606" stroke="#CB3546" stroke-width="0.5" stroke-miterlimit="10"/>
<path d="M104.054 88.6619C103.977 88.7783 103.893 88.8948 103.813 89.0112" stroke="#CB3546" stroke-width="0.5" stroke-miterlimit="10"/>
<path d="M86.7542 9.09378C86.4638 8.9141 86.1701 8.73775 85.8763 8.56473L85.6327 9.69272L86.7542 9.09378Z" stroke="#CB3546" stroke-width="0.5" stroke-miterlimit="10"/>
<path d="M96.6104 28.1764L95.8895 29.6139L99.6611 28.8386L102.385 28.0367L104.931 27.0384C104.357 26.1378 103.761 25.2505 103.142 24.3765L98.9101 26.5626L96.6104 28.1764Z" stroke="#CB3546" stroke-width="0.5" stroke-miterlimit="10"/>
<path d="M92.2013 12.907L92.0211 12.7606L91.8742 13.3096L92.2013 12.907Z" stroke="#CB3546" stroke-width="0.5" stroke-miterlimit="10"/>
<path d="M80.4392 23.3251L81.0333 25.398L78.9339 27.4411L78.0527 24.29L78.8938 20.4702L80.9532 18.3007L83.3263 15.1563L85.9965 13.5092L88.5766 13.1532L90.2755 11.4396C90.8662 11.8688 91.447 12.3014 92.0211 12.7506L91.8742 13.3096L88.9404 15.9316L86.5773 18.1643L85.152 19.9278L84.0673 22.4599L81.03 25.3881L80.4392 23.3251ZM80.4392 23.3251L82.2449 19.9245L84.2475 17.3524" stroke="#CB3546" stroke-width="0.5" stroke-miterlimit="10"/>
<path d="M85.9898 13.5093L83.3196 15.1563L83.6801 12.4611L85.6327 9.70605L86.7542 9.10712C87.9591 9.84913 89.134 10.6377 90.2755 11.4629L88.5766 13.1765L85.9965 13.5093L87.7822 10.9405L85.9898 13.5093ZM85.9898 13.5093L85.8263 12.2315" stroke="#CB3546" stroke-width="0.5" stroke-miterlimit="10"/>
<path d="M90.2888 20.2606L91.0198 18.537L93.0191 16.3475L94.7146 15.0166C95.4 15.6222 96.0675 16.2444 96.7173 16.8832L96.3835 19.9378L91.8943 21.7379M90.2888 20.2606L92.2013 20.7796M90.2888 20.2606L86.861 21.2954L84.0706 22.4699L81.0333 25.3981M81.0333 25.3981L83.5733 26.2732M81.0333 25.3981L78.9339 27.4411M78.9339 27.4411L80.9899 28.1332M78.9339 27.4411L76.3705 30.4856L75.5327 33.5136L74.8285 36.2753L79.3978 34.6549L79.4512 32.0329M79.4512 32.0329L79.3711 29.6638M79.4512 32.0329L80.7496 30.9082L83.5733 28.9384L85.4458 26.7856L88.196 24.3765L89.451 22.8626L88.2228 24.3765L91.8943 21.7379M91.8943 21.7379L93.1092 19.0161" stroke="#CB3546" stroke-width="0.5" stroke-miterlimit="10"/>
<path d="M92.6553 13.2697L92.2013 12.907L91.8676 13.3196L92.6553 13.2697Z" stroke="#CB3546" stroke-width="0.5" stroke-miterlimit="10"/>
<path d="M88.2528 27.6374L83.56 28.9284L85.4458 26.7856L88.2061 24.3765L91.8776 21.7379L96.3668 19.9378L98.019 22.5065L100.075 22.7894L101.624 22.3634C102.142 23.0223 102.646 23.6944 103.136 24.3799L98.9102 26.5693L96.6105 28.1797L95.8895 29.6139L93.473 31.8698L89.3242 33.1243L87.0913 33.3838M88.2528 27.6374L89.9751 26.4628M88.2528 27.6374L89.6046 27.8969L92.2113 27.2847M92.2113 27.2847L94.8982 24.1869M92.2113 27.2847L94.1506 26.3297L95.983 25.4346M92.2113 27.2847L93.4997 27.9868M92.2113 27.2847L89.6179 27.8903L88.2662 27.6307L83.5733 28.9218L80.7496 30.8916L79.4379 32.0229L79.3845 34.6449L82.3317 34.006L83.0493 32.4588M94.8982 24.1869L96.3902 21.6447M94.8982 24.1869L96.4236 24.2567L98.3494 24.3898M83.0493 32.4588L83.323 30.4856M83.0493 32.4588L84.5746 31.943M84.5746 31.943L86.1767 30.8117L87.8456 29.2811M84.5746 31.943L83.0626 32.4488L82.345 33.996L84.1407 34.3288L87.0913 33.3838M87.0913 33.3838L88.4697 31.983L90.1386 30.3193" stroke="#CB3546" stroke-width="0.5" stroke-miterlimit="10"/>
<path d="M96.3668 19.9378L98.019 22.5065L100.082 22.7893L101.63 22.3634C100.987 21.5449 100.32 20.7452 99.6277 19.9644L98.9602 19.8579L96.3668 19.9378Z" stroke="#CB3546" stroke-width="0.5" stroke-miterlimit="10"/>
<path d="M97.4082 18.4305L97.8654 18.0445C97.4883 17.6519 97.1011 17.2659 96.7139 16.8832L96.3802 19.9378L97.4082 18.4305Z" stroke="#CB3546" stroke-width="0.5" stroke-miterlimit="10"/>
<path d="M99.6344 19.9644L99.2673 19.5518L98.9669 19.8579L99.6344 19.9644Z" stroke="#CB3546" stroke-width="0.5" stroke-miterlimit="10"/>
<path d="M36.0141 107.142L34.0915 107.292M36.0141 107.142L38.3104 105.385L39.3117 103.569M36.0141 107.142L35.2798 108.204L34.1416 108.853C32.9934 108.347 31.863 107.804 30.7505 107.225L30.7805 106.041L30.7004 102.966L33.6142 101.303L37.1389 100.637M39.3117 103.569L37.5628 102.88M39.3117 103.569L42.8097 100.341L43.0567 97.8089L39.1415 99.04L37.1389 100.637M37.1389 100.637L35.0328 103.193L33.8045 104.62L32.89 106.094L32.2658 107.731" stroke="#CB3546" stroke-width="0.5" stroke-miterlimit="10"/>
<path d="M57.3188 0.688782H57.0017C56.5144 0.688782 56.0271 0.688782 55.5431 0.688782L55.7834 1.82342L57.3188 0.688782Z" fill="#CB3546" stroke="#CB3546" stroke-width="0.5" stroke-miterlimit="10"/>
<path d="M70.9567 7.65303L70.1957 5.46028L70.0688 3.59694L70.1423 2.21606C71.2549 2.48447 72.3674 2.78505 73.48 3.11779L73.7637 4.78149M70.9567 7.65303L71.8278 6.29546M70.9567 7.65303L71.0001 11.3298L71.1302 14.3444L71.6509 16.6503L71.8946 19.0228L73.45 18.3573L74.1609 15.1996L74.2877 11.5993L74.0441 8.60467L73.7637 4.78149M73.7637 4.78149L72.225 4.07941" stroke="#CB3546" stroke-width="0.5" stroke-miterlimit="10"/>
<path d="M63.4936 5.14749L62.559 2.77505L63.2099 1.20452V1.02484C64.6095 1.17568 65.9913 1.37755 67.3553 1.63043L67.392 3.24422L66.7545 6.40192L66.0002 9.52967L65.5396 12.9968L65.0289 14.9933L63.2666 16.8599L64.0843 14.198L64.2212 11.9786L64.0843 7.75284L63.4936 5.14749ZM63.4936 5.14749L64.7452 4.04945L65.6097 1.72027" stroke="#CB3546" stroke-width="0.5" stroke-miterlimit="10"/>
<path d="M61.6578 35.0675L59.8588 32.3856L61.3607 30.9448L62.8994 27.8936L64.8086 23.3084L66.5075 21.139L68.0896 19.1858L66.5008 21.1223L64.8019 23.2918L65.5529 19.9644L67.0148 16.1312L65.5629 19.981L64.8119 23.3084L62.9028 27.8936L61.3708 30.9515L59.8688 32.3922L59.2914 28.7321L60.9268 26.14L62.1651 23.9107L61.7479 21.0591L63.2933 16.8832L65.0556 15.0166L65.5663 13.0201L66.0269 9.55296L66.7545 6.40192L67.382 3.26085L67.362 1.64706C68.2932 1.81676 69.2211 2.01308 70.1356 2.22936L70.0622 3.61023L70.2024 5.4769L70.9634 7.67631L71.0068 11.3364L71.1369 14.3511M61.6578 35.0675L63.2232 32.2924L64.4915 30.0464L66.0569 27.5875L66.9347 25.6343L67.4488 22.7394M61.6578 35.0675L61.571 38.9772L61.3507 40.8172L60.8401 42.2313L60.7466 46.0712L60.4128 47.2324L61.798 51.5181L62.1518 48.8063L62.2586 47.116L62.7392 42.421L63.4068 40.1218L63.3734 37.9723L65.4094 33.8629L66.097 31.8931L67.5455 29.7836L68.7872 27.654L70.426 22.7428M70.426 22.7428L70.1657 20.9826M70.426 22.7428L71.9013 19.0294M71.9013 19.0294L70.6296 18.1377L69.2011 16.1412L67.7959 13.3761L66.6143 10.5212M71.9013 19.0294L71.6576 16.657L71.1369 14.3511M71.1369 14.3511L69.7384 11.4329L68.5368 8.6945" stroke="#CB3546" stroke-width="0.5" stroke-miterlimit="10"/>
<path d="M55.7834 7.51328L55.0424 5.51684L55.7834 1.83673L57.3187 0.688782C58.6939 0.695437 60.0624 0.752002 61.4141 0.855152L61.6211 1.73026L62.5723 2.77506L63.5069 5.1475M55.7834 7.51328L57.8361 4.74821M55.7834 7.51328L57.1786 11.0337L60.7132 13.08L61.2139 9.46646L60.2526 8.65125M60.2526 8.65125L59.1946 7.27038M60.2526 8.65125L61.2139 9.47311L62.3287 6.65481L61.2139 9.46979L60.7132 13.0833L62.7492 15.9383L63.2632 16.8766L64.081 14.2147L64.2078 12.0086L64.0843 7.75285L63.5069 5.1475M63.5069 5.1475L60.7166 3.68677L58.6672 2.15616" stroke="#CB3546" stroke-width="0.5" stroke-miterlimit="10"/>
<path d="M62.559 2.77507L63.1932 1.20454V1.02486C62.5957 0.958313 61.9983 0.901747 61.3975 0.855164L61.6044 1.73027L62.559 2.77507Z" stroke="#CB3546" stroke-width="0.5" stroke-miterlimit="10"/>
<path d="M83.4431 10.4414L83.6934 12.4611L85.646 9.69272L85.8897 8.56473C85.2221 8.16544 84.5412 7.78058 83.847 7.41013L83.6334 8.55475L83.4431 10.4414Z" stroke="#CB3546" stroke-width="0.5" stroke-miterlimit="10"/>
<path d="M75.2023 3.66014C74.6315 3.46715 74.0574 3.28747 73.48 3.11111L73.7637 4.77481L75.2023 3.66014Z" stroke="#CB3546" stroke-width="0.5" stroke-miterlimit="10"/>
<path d="M78.9038 16.2045L77.7957 13.6424L79.0039 12.4678L80.2022 10.5612L80.9899 8.55809L81.5273 6.22891C82.3116 6.60491 83.086 7.00087 83.847 7.41014L83.6334 8.55476L83.4431 10.4414L83.6801 12.4611L83.3196 15.1563L80.9532 18.3007L78.9038 20.4735V16.2045ZM78.9038 16.2045L80.2389 14.95L81.574 12.927" stroke="#CB3546" stroke-width="0.5" stroke-miterlimit="10"/>
<path d="M77.492 10.3416L77.9426 8.18207L78.6702 6.51505L79.3745 5.26727C80.0976 5.57783 80.8108 5.90059 81.5139 6.23555L80.9766 8.56472L80.2022 10.5612L79.004 12.4678L77.7957 13.639L77.492 10.3416ZM77.492 10.3416L78.4933 10.1752" stroke="#CB3546" stroke-width="0.5" stroke-miterlimit="10"/>
<path d="M74.2877 11.6193L74.0441 8.62463L73.7637 4.78149L75.2023 3.67014C76.01 3.94298 76.8111 4.23579 77.6021 4.54191L76.8678 6.27549L76.2904 8.34846M74.2877 11.6193L74.5414 9.95559M74.2877 11.6193L74.1609 15.2195L73.45 18.3772L71.8946 19.0427L70.426 22.7428L68.8239 27.654L67.5823 29.7836L66.1337 31.8931L65.4461 33.8629L66.8847 32.8647L68.9674 31.1544L71.5441 28.2829L68.9674 31.1411L66.8847 32.8514L65.4461 33.8496L63.4168 37.9723L63.4502 40.1218M63.4502 40.1218L65.9134 38.0289L67.6223 36.3652L68.9574 35.0974L71.1937 33.1709M63.4502 40.1218L62.7826 42.421L62.302 47.116L62.1952 48.8063L61.8414 51.5181L62.0784 56.5092L61.9749 59.1046L62.7025 60.6419L65.3426 57.8601L66.0569 55.7572L65.6898 53.6643L64.5549 51.242M64.5549 51.242L65.099 48.7664M64.5549 51.242L65.0856 48.7531L66.9581 45.7983L65.099 48.7664M64.5549 51.242L65.6731 53.6809L67.0549 51.4483L68.6737 48.407L68.8606 46.8465L69.0475 43.9383L69.3245 39.6892L69.0475 43.9217L68.8606 46.8298L68.6737 48.3904L70.0722 46.7067L71.2604 44.0049L72.6656 40.3148M65.099 48.7664L65.5229 45.439M65.5229 45.439L65.7165 42.7504L66.2138 40.9703M65.5229 45.439L66.5242 43.7753M72.6656 40.3148L71.6643 38.5779L71.4574 35.0176M72.6656 40.3148L74.8285 36.2687L73.9306 35.3037L73.1629 30.3925L73.0962 27.4511M73.0962 27.4511L73.5267 23.4116M73.0962 27.4511L73.1496 30.3891L73.9173 35.3004L74.8151 36.2653L75.5194 33.5036L76.3571 30.4757L75.8298 28.0167L75.7664 25.3814L75.6996 23.2918L75.7597 25.398L75.8431 28.0333L76.3705 30.4923L78.9339 27.4477L78.0527 24.29L78.8938 20.4802V16.2111L77.7957 13.6423M73.5267 23.4116L73.0628 22.1505M73.5267 23.4116L75.9933 19.6084M75.9933 19.6084L76.5474 17.0962M75.9933 19.6084L77.2516 18.8364M77.7957 13.6423L76.1268 13.9418M77.7957 13.6423L77.492 10.3449L76.2904 8.34846M76.2904 8.34846L75.3859 6.62154" stroke="#CB3546" stroke-width="0.5" stroke-miterlimit="10"/>
<path d="M76.2904 8.34179L77.492 10.3382L77.9426 8.17875L78.6702 6.51505L79.3745 5.26727C78.787 5.01883 78.1962 4.77704 77.6021 4.5419L76.8678 6.27548L76.2904 8.34179Z" stroke="#CB3546" stroke-width="0.5" stroke-miterlimit="10"/>
<path d="M86.861 21.2954L84.0706 22.46L85.1554 19.9278L86.5806 18.1643L88.9437 15.9316L91.8776 13.3362L92.6586 13.2863C93.364 13.8564 94.0504 14.4387 94.718 15.0332L93.0224 16.3642L91.0198 18.5469L90.2888 20.2705L86.861 21.2954ZM86.861 21.2954L88.3296 19.8413" stroke="#CB3546" stroke-width="0.5" stroke-miterlimit="10"/>
<path d="M55.0724 113.631H55.1692V113.464L55.0724 113.631Z" stroke="#CB3546" stroke-width="0.5" stroke-miterlimit="10"/>
<path d="M53.6873 107.778L54.5618 109.205L55.0391 111.614L55.1726 113.471L55.0858 113.634C53.8342 113.594 52.5892 113.514 51.3609 113.391L50.5165 112.939L47.4157 111.042L46.6013 108.846L46.1941 104.713L47.4691 101.306L48.5305 102.304L49.0646 104.371L49.5986 107.728M53.6873 107.778L53.22 110.057M53.6873 107.778L53.4003 104.959L53.7107 102.441L53.9109 97.8854L55.2828 94.415L57.9529 91.1708L58.5904 86.6555M58.5904 86.6555L57.3521 87.3542M58.5904 86.6555L59.1612 83.5776L59.8287 81.6444L61.7479 79.5249L64.0843 77.5284L63.9475 73.3492L63.8841 71.02L64.0209 69.1101L64.7953 67.1536L62.3988 64.1855L62.9695 65.786V67.6261L62.4155 69.8954L61.8347 72.0415L61.0804 75.6684M61.0804 75.6684L61.561 77.1125M61.0804 75.6684L59.4115 77.971L58.0764 80.5464L57.232 82.6559L56.0738 86.0033L57.2286 82.6559L58.0731 80.5464L59.4082 77.971L61.0937 75.6684L61.808 72.0515L62.3888 69.9053L62.9428 67.6361V65.796L62.3721 64.1955L60.6298 65.623L61.027 66.9905L60.6365 69.6258L59.7453 72.7569M59.7453 72.7569L58.6238 75.1859L56.5678 78.1806L55.2994 80.3301L54.4683 83.2515M59.7453 72.7569L60.6431 69.6258L61.0337 66.9905L60.6365 65.623L58.3167 67.879M54.4683 83.2515L54.5251 84.5825M54.4683 83.2515L54.0144 87.0148L53.9376 89.4638L53.6039 91.6532L52.9363 93.9225M58.3167 67.879L58.23 70.2081L57.4923 72.514L55.7066 75.7915L54.0378 78.2172M58.3167 67.879L55.236 69.5127M55.236 69.5127L56.1506 71.0466M55.236 69.5127L52.706 72.8401M52.706 72.8401L55.3762 73.8982M52.706 72.8401L52.7728 74.943M52.706 72.8401L49.2081 75.502M49.2081 75.502L50.6433 76.8929L51.5245 79.6513M49.2081 75.502L47.9231 78.3137L48.5906 81.2784L50.0158 84.2398L50.8669 86.6488L51.5645 88.4722L50.9838 92.6315L50.3997 94.8741L50.9771 92.6248L51.5578 88.4656L50.8603 86.6422L49.9925 89.0612L48.0299 95.0505M48.0299 95.0505L49.4851 96.7575L50.8503 101.03L51.0639 102.867L50.937 106.314M48.0299 95.0505L46.6047 98.7339L47.4625 101.313L48.5239 102.311L49.0579 104.377L49.5986 107.728M49.5986 107.728L49.9658 109.488" stroke="#CB3546" stroke-width="0.5" stroke-miterlimit="10"/>
<path d="M47.3957 111.039L46.7281 112.739C48.0165 112.974 49.3216 113.165 50.6433 113.311L50.5098 112.935L47.3957 111.039Z" stroke="#CB3546" stroke-width="0.5" stroke-miterlimit="10"/>
<path d="M46.5913 108.843L47.4057 111.039L45.4231 111.551L47.3924 111.042L46.7248 112.742C45.6389 112.543 44.5653 112.313 43.5039 112.053L41.2343 111.135L44.1815 107.252M46.5913 108.843L45.6968 109.684M46.5913 108.843L46.1841 104.71L44.1815 107.252M44.1815 107.252L43.8744 108.813L43.4872 111.002" stroke="#CB3546" stroke-width="0.5" stroke-miterlimit="10"/>
<path d="M56.6746 111.774L58.497 108.892L60.8968 113.138L60.6632 113.544C59.4582 113.624 58.23 113.667 56.9917 113.667C56.3775 113.667 55.7701 113.654 55.1626 113.634V113.468L55.4263 112.965L56.6746 111.774ZM56.6746 111.774L57.7627 113.571" stroke="#CB3546" stroke-width="0.5" stroke-miterlimit="10"/>
<path d="M50.64 113.311L51.3509 113.388L50.5065 112.935L50.64 113.311Z" stroke="#CB3546" stroke-width="0.5" stroke-miterlimit="10"/>
<path d="M99.6611 28.8352L102.555 28.7454L104.294 28.6256M99.6611 28.8352L95.8895 29.6139L93.473 31.8865L97.535 32.4854L99.0837 31.4373L100.96 30.2793L99.0837 31.4206L97.535 32.4688M99.6611 28.8352L102.385 28.0367L104.931 27.0385C105.454 27.8659 105.958 28.711 106.443 29.5739L104.387 31.2776L103.146 32.7549L99.4742 35.317L96.2566 37.4266L94.8715 38.7176L93.5664 40.5843L92.6653 42.1881L91.457 43.2129M97.535 32.4688L98.3995 33.6134M97.535 32.4688L93.473 31.8698L89.3242 33.1243L87.0912 33.3838L84.1407 34.3288L82.345 33.996L79.3978 34.6349M79.3978 34.6349L80.6261 35.337M79.3978 34.6349L74.8284 36.2687L72.6656 40.3214M72.6656 40.3214L74.3678 39.433L76.8444 37.543M72.6656 40.3214L71.2604 44.0115L70.0722 46.7134L68.6737 48.397L67.0549 51.4383L65.6731 53.671L66.0402 55.7639M66.0402 55.7639L67.649 55.1716M66.0402 55.7639L65.3259 57.8668M65.3259 57.8668L66.5175 57.9001M65.3259 57.8668L62.6858 60.6485L62.3754 64.1988L65.4327 63.3703M65.4327 63.3703L65.6197 62.0127L66.364 60.6818M65.4327 63.3703L67.8092 61.9096L67.7491 59.9897L68.3599 57.9566L70.2658 54.4695L70.0755 51.8309L72.1316 48.3438L75.5327 44.6836M75.5327 44.6836L75.6429 42.4576L75.8465 40.0885M75.5327 44.6836L78.7269 44.3509M78.7269 44.3509L78.6301 42.0683L79.6147 39.7624L81.0767 37.3234M78.7269 44.3509L81.564 43.539L81.4739 41.6091L82.7422 38.3649M82.7422 38.3649L82.9925 36.0025M82.7422 38.3649L84.2976 37.2436L86.1634 36.1555L88.4363 35.2538L91.9944 34.3687L88.4497 35.2505L86.1767 36.1522L84.3109 37.2403L82.7555 38.3616L81.4739 41.5925L81.564 43.5224L82.5086 42.5042L82.9391 41.0867L84.1607 39.5827L86.0799 38.1786M86.0799 38.1786L88.0559 37.1238M86.0799 38.1786L84.1607 39.5961L82.9391 41.1L82.5086 42.5175L83.7902 42.0849L86.3469 40.6142L89.5445 38.6178L91.8809 36.9807L94.0537 35.2871L95.6926 33.8962L94.0537 35.2704L91.8809 36.9641L89.5445 38.6012L86.3469 40.5976L83.7769 42.0849L82.4952 42.5175L81.5506 43.5357M81.5506 43.5357L83.7068 43.7852M81.5506 43.5357L78.7136 44.3476L75.5194 44.6803L72.1182 48.3405L70.0922 51.8276L70.2825 54.4662M70.2825 54.4662L71.7577 51.9973L74.9219 48.8662M70.2825 54.4662L71.9947 54.7158M70.2825 54.4662L68.3766 57.9533L67.7558 59.9864L67.8159 61.9063L68.8172 61.1576L70.3859 59.6969L73.0261 57.4475L75.4326 54.6692M74.9219 48.8662L75.6963 46.3174M74.9219 48.8662L77.9959 48.8329L80.3991 48.2806L84.0139 46.3174M84.0139 46.3174L85.0152 44.9199L85.7061 43.3227M84.0139 46.3174L86.684 44.0914L87.8256 42.5874M75.4326 54.6692L75.5861 52.0073L76.2537 49.3819M75.4326 54.6692L79.6982 53.9604L79.3978 52.0372L80.1054 49.5117L79.4178 52.0372L79.7182 53.9604L81.4338 52.9822L83.086 51.1388L86.3002 49.3054L88.3429 45.8582M88.3429 45.8582L88.5765 44.1646L89.4477 40.9869M88.3429 45.8582L91.457 43.2129M91.457 43.2129L92.3081 41.9485" stroke="#CB3546" stroke-width="0.5" stroke-miterlimit="10"/>
<path d="M75.3425 107.428L74.458 108.623L73.2764 110.13L72.0381 111.648C70.3337 112.113 68.6003 112.502 66.8379 112.812M75.3425 107.428L73.5735 107.784L71.4473 109.248M75.3425 107.428L76.6075 103.658L76.1168 99.6656L74.745 96.9504M74.745 96.9504L73.6069 99.4759M74.745 96.9504L74.9253 94.2353L74.5014 90.2623L73.6469 86.4059L73.9072 84.2464L74.5748 82.8056L73.0094 80.0006M73.6069 99.4759L73.9039 101.572L73.4733 104.42M73.6069 99.4759L72.0715 100.601L70.2057 102.301M73.0094 80.0006L72.5054 83.0319M73.0094 80.0006L71.3606 76.793L69.1844 75.0694L66.8279 73.4057M66.8279 73.4057L66.7378 75.695L67.6991 77.169L70.3092 79.3618L72.6456 80.9589M66.8279 73.4057L66.6577 70.3578L65.9902 68.4646L64.7886 67.1702L64.0142 69.1267L63.8774 71.0366L63.9408 73.3658L64.0776 77.545L66.3373 79.2087L68.2264 80.523L69.1977 81.9172M69.1977 81.9172L70.2791 84.6191M69.1977 81.9172L68.2097 80.523L66.3206 79.2087M66.3206 79.2087L66.8246 80.7759L67.5989 83.1484M66.3206 79.2087L64.061 77.545L63.7272 79.2087L63.8907 81.681L65.109 84.9718M65.109 84.9718L67.6857 85.5641L70.6897 88.5254M65.109 84.9718L65.8466 86.1098L67.2418 87.7003L68.6136 89.3007M65.109 84.9718L65.4194 87.8101L66.5342 89.0046L65.4194 87.7901M70.6897 88.5254L71.9847 90.1891L72.1182 93.2271M70.6897 88.5254L70.7431 90.0061L70.3826 92.3087M72.1182 93.2271L72.452 95.1237L72.5822 97.4529M72.1182 93.2271L70.9734 96.062L70.3058 97.9154M65.4194 87.7901L66.3339 91.2739M65.4194 87.7901L66.3239 91.2739L65.4795 94.212M65.4194 87.7901L65.109 84.9518L63.8907 81.661L63.7272 79.1888L64.061 77.5251L61.7245 79.5215L61.5009 80.7826M66.3339 91.2739L68.37 91.3338M66.3339 91.2739L66.7879 92.0924L68.3299 93.1406L70.5161 94.202M66.3339 91.2739L65.4895 94.212L66.7645 94.934L67.619 97.0103M67.619 97.0103L68.6704 99.6722L68.6303 102.916M67.619 97.0103L67.0115 100.128L66.2305 102.437L65.5195 104.434L65.0055 106.65M67.619 97.0103L66.7545 94.934L65.4795 94.212M68.6303 102.916L69.675 103.795L69.9454 106.537L69.2778 110.786M68.6303 102.916L68.5101 105.758L68.41 107.908M68.6303 102.916L67.6857 104.643L66.9915 106.563M65.4795 94.212L64.6918 96.3548M64.6918 96.3548L64.9588 98.278L65.1758 100.547M64.6918 96.3548L63.6905 97.7224L62.8927 99.4593M61.5009 80.7826L61.561 83.0585L61.6778 85.4942L61.4375 90.0694M61.5009 80.7826L61.7479 79.5248L59.8354 81.6544L59.1679 83.5876L58.5971 86.6654M61.4375 90.0694L62.3754 92.3819L62.2419 95.0738M61.4375 90.0694L61.1738 92.0658M61.4375 90.0694L60.3494 90.3355M58.5971 86.6654L60.2025 88.2992M58.5971 86.6654L57.9462 91.1707M57.9462 91.1707L59.3214 93.5964M57.9462 91.1707L58.1065 91.7564L58.774 94.6612L59.822 97.6958L61.1571 100.471L62.4088 102.73L61.1605 100.487L59.8254 97.7124L58.7773 94.6778L58.1098 91.773L57.9496 91.1874L55.2794 94.4316M55.2794 94.4316L55.8568 96.0953L57.2186 98.6174L58.7506 100.674M55.2794 94.4316L53.9076 97.9021L54.9089 100.418M54.9089 100.418L56.6946 101.239L59.8988 102.434M54.9089 100.418L57.1953 104.743M57.1953 104.743L60.6698 105.988M57.1953 104.743L58.497 108.899M60.6698 105.988L62.5723 105.355M60.6698 105.988L62.1651 108.962M62.1651 108.962L62.9094 109.079L65.6564 110.476M62.1651 108.962L63.1664 111.601M58.497 108.899L59.7686 109.192M58.497 108.899L60.9202 113.132L62.0617 113.434C63.6749 113.29 65.267 113.083 66.8379 112.812M66.8379 112.812L67.856 111.897" stroke="#CB3546" stroke-width="0.5" stroke-miterlimit="10"/>
<path d="M60.6865 113.544L61.1404 113.518L60.9202 113.138L60.6865 113.544Z" stroke="#CB3546" stroke-width="0.5" stroke-miterlimit="10"/>
<path d="M81.8243 107.292L79.6648 107.052M81.8243 107.292L82.7355 107.518C84.4197 106.662 86.0595 105.721 87.6487 104.7M81.8243 107.292L82.7322 107.518C81.6864 108.051 80.6228 108.55 79.5413 109.016L79.2076 109.052M87.6487 104.7L86.6941 104.43M87.6487 104.7C88.6567 104.05 89.6413 103.372 90.6026 102.667M86.6941 104.43L85.2922 104.494L82.2883 103.792L80.2122 103.073M86.6941 104.43L84.0239 102.906L82.0213 101.908M90.6026 102.667L90.3856 102.57M90.6026 102.667C91.2701 102.168 91.9376 101.652 92.6052 101.126M92.6052 101.126L90.5492 100.837L88.2127 100.973L86.5439 101.007M92.6052 101.126C93.4953 100.403 94.3697 99.6545 95.2286 98.8803M95.2286 98.8803L91.5872 98.7605L88.5832 98.8703L85.4858 99.0467M95.2286 98.8803C96.0408 98.1416 96.8296 97.3786 97.5951 96.5911L96.7106 96.4979M85.4858 99.0467L83.6634 100.65M85.4858 99.0467L84.2408 98.2015M96.7106 96.4979L94.1539 96.8939L90.2888 96.0687M96.7106 96.4979L94.1239 94.8076L96.7206 96.4979L97.6051 96.5911C98.6554 95.5152 99.6634 94.4005 100.629 93.247L100.085 93.1805L98.79 93.9624L97.1278 94.8309L98.78 93.9591L100.075 93.1772L97.6752 92.3686M90.2888 96.0687L88.5398 96.6609L86.3102 96.9937M90.2888 96.0687L88.6667 94.1255M97.6752 92.3686L95.7627 92.881H93.9069L91.7073 92.5483L89.8115 92.1224M97.6752 92.3686L95.7927 91.0776L97.6785 92.3719L100.078 93.1805L100.622 93.247C101.664 91.9959 102.651 90.7005 103.583 89.3606M103.583 89.3606L102.598 89.7799L100.175 89.4671M103.583 89.3606C103.663 89.2442 103.743 89.131 103.823 89.0113M103.823 89.0113L101.066 88.196M103.823 89.0113C103.903 88.8948 103.987 88.7783 104.064 88.6619M101.066 88.196L99.0236 89.4405L94.5945 89.6468L91.4437 89.537M101.066 88.196L99.2907 87.9731L96.9542 87.444L94.3174 86.7985M101.066 88.196L99.9448 86.1297M91.4437 89.537L89.0038 91.1009L87.4384 92.5483L85.5092 95.0738M91.4437 89.537L89.8449 88.0763L88.4864 86.7253M94.3174 86.7985L90.903 86.7819M94.3174 86.7985L93.1559 86.0765M99.9448 86.1297L98.3227 85.4643L95.9663 84.2398M99.9448 86.1297L99.314 84.0601M95.9663 84.2398L93.5164 84.0801M95.9663 84.2398L94.2473 82.2899L92.6986 80.8724M104.064 88.6619L103.86 87.7169L102.011 84.7422M104.064 88.6619C104.634 87.8167 105.178 86.9549 105.706 86.0798M105.706 86.0798L105.262 85.5674M105.706 86.0798C106.04 85.5142 106.373 84.9385 106.707 84.3596L105.138 83.4545M105.138 83.4545L101.734 81.8207L98.8 81.5878M105.138 83.4545L101.731 81.8207M105.138 83.4545L106.697 84.3596C107.238 83.3791 107.751 82.3809 108.236 81.3649L105.305 79.6446M98.8 81.5878L96.8575 81.9206M98.8 81.5878L97.6418 80.6495M97.6418 80.6495L95.8962 79.5847M97.6418 80.6495L98.7967 81.5878L101.731 81.8207M101.731 81.8207L100.983 80.5963L99.8748 79.1322M105.305 79.6446L103.95 79.4783L101.887 78.9791M105.305 79.6446L103.553 78.0841L100.966 76.9162L98.8801 77.1657L95.2587 77.5284L98.8668 77.1591L100.953 76.9095M100.953 76.9095L98.7766 75.4388M100.953 76.9095L103.54 78.0774L105.292 79.638L108.222 81.3582C108.59 80.5863 108.939 79.8099 109.27 79.0291L107.555 77.8112M98.7766 75.4388L97.0177 75.9412M98.7766 75.4388L98.5797 72.92L98.2459 70.1083M107.555 77.8112L106.517 77.8878M107.555 77.8112L105.485 75.1493L103.469 74.201M103.469 74.201L101.554 73.5355L100.025 72.2844M103.469 74.201L102.201 72.9632M103.469 74.201L105.472 75.1427M105.472 75.1427L105.138 72.4608M105.472 75.1427L107.542 77.8046L109.257 79.0224C109.749 77.86 110.199 76.6788 110.609 75.4787M105.138 72.4608L104.024 71.7953L102.405 70.1516L100.736 66.7676M105.138 72.4608L105.082 71.0766L103.603 69.1434L101.968 67.8557M100.736 66.7676L98.9836 63.7729M100.736 66.7676L100.783 65.6962M110.609 75.4787L109.411 74.8132M110.609 75.4787C110.952 74.4849 111.266 73.479 111.553 72.4608L110.145 71.5391L111.577 72.4807C111.76 71.8153 111.931 71.1498 112.094 70.4843L111.727 70.2747L110.152 69.9419L107.021 68.5444M109.411 74.8132L107.582 74.3175M109.411 74.8132L107.842 72.1879M107.021 68.5444L104.785 67.3033M107.021 68.5444L110.142 69.9453L111.717 70.278L108.977 67.2135M108.977 67.2135L106.05 65.999M108.977 67.2135L108.476 64.4551L107.224 63.1241L106.14 61.6168L107.228 63.1307L108.479 64.4617M108.977 67.2135L108.479 64.4617M108.977 67.2135L111.717 70.258L112.084 70.4677C112.324 69.4805 112.538 68.4823 112.725 67.473M106.05 65.999L103.466 66.0888M106.05 65.999L104.274 63.7696M104.274 63.7696L102.879 63.5899L101.21 62.9245M104.274 63.7696L102.325 60.8348M102.325 60.8348L101.213 60.8981M102.325 60.8348L100.229 57.9633M102.325 60.8348L102.482 59.241M108.479 64.4617L108.61 62.4653M108.61 62.4653L106.407 60.0496L105.405 57.94M108.61 62.4653L109.611 61.2641M105.405 57.94L103.039 55.4045M105.405 57.94L106.407 56.3695M112.725 67.473L112.098 67.1236L110.532 66.0489M112.725 67.473C112.841 66.8408 112.946 66.2064 113.042 65.5697M113.042 65.5697L112.375 64.5149L111.373 62.8679L109.547 59.7967L108.293 56.6423M113.042 65.5697C113.207 64.4606 113.338 63.3515 113.436 62.2423L113.102 61.7532L112.148 59.9997M108.293 56.6423L107.038 52.7393M108.293 56.6423L108.202 55.0851L108.443 52.3999M107.038 52.7393L105.682 50.297M107.038 52.7393L107.965 50.6231M112.148 59.9997L111.266 57.4043L110.769 54.8156M112.148 59.9997L113.119 61.7665L113.453 62.2556C113.603 60.5919 113.683 58.8883 113.683 57.1747C113.683 56.212 113.66 55.2537 113.613 54.2998M113.613 54.2998L110.329 52.9456M113.613 54.2998C113.553 53.112 113.449 51.9341 113.319 50.7628M113.319 50.7628L108.913 48.6765M113.319 50.7628L113.279 50.4301M108.913 48.6765L105.776 47.9811M108.913 48.6765L106.851 45.8616L105.926 44.494M113.279 50.4301L112.875 49.8977L110.986 47.6517M113.279 50.4301C113.077 48.722 112.798 47.0394 112.445 45.3824L111.607 44.1413M111.607 44.1413L109.808 40.7939L109.454 39.1735M111.607 44.1413L111.44 41.4794V41.4328C110.877 39.4893 110.208 37.5777 109.437 35.7063L109.047 36.089L107.261 37.5431L105.175 41.4195L103.84 43.3427L101.821 47.1193M101.821 47.1193L104.06 47.3489M101.821 47.1193L97.9188 48.4969L95.3455 47.8946L92.9256 48.5601L89.9217 49.1291L86.3036 49.3154L83.0893 51.1488L81.4372 52.9922M81.4372 52.9922L83.1361 52.5463M81.4372 52.9922L79.7216 53.9704L81.1101 54.4096L84.9451 52.9522M84.9451 52.9522L87.0546 51.7943M84.9451 52.9522L81.1067 54.3997L79.7182 53.9604L75.4326 54.6692L73.0027 57.4476M87.0546 51.7943L87.9824 49.6381M87.0546 51.7943H89.451M73.0027 57.4476L75.0054 56.8486L77.8057 55.9436M73.0027 57.4476L70.3626 59.6969L68.7939 61.1576L67.7925 61.9063L69.3613 62.6816L71.2638 62.2756L73.9907 60.7117L76.1636 59.3808L79.2943 58.0498L83.3597 57.1181M83.3597 57.1181L84.1474 56.2364M83.3597 57.1181L84.8683 55.9702L87.7154 54.7557L91.0832 53.4547M91.0832 53.4547L91.3335 51.4582M91.0832 53.4547L93.8168 52.6894L94.9583 51.5581L97.4349 50.5232L101.006 50.1472M101.006 50.1472L103.343 50.2271M101.006 50.1472L97.4616 50.5399L94.975 51.5747L93.8335 52.706M93.8335 52.706L95.9095 53.0587L100.058 52.7526L102.762 52.2302M93.8335 52.706L91.0999 53.4713M91.0999 53.4713L93.7033 55.2049M91.0999 53.4713L87.7321 54.7723L84.885 55.9868L83.3764 57.1348M83.3764 57.1348L85.379 57.8003M83.3764 57.1348L79.311 58.0664L76.1802 59.3974L74.0074 60.7284L71.2805 62.2922L69.378 62.6982L67.8092 61.9229L65.4194 63.367M85.379 57.8003L87.1347 56.9984M85.379 57.8003L86.5405 58.7419M65.4194 63.367L67.1417 64.9708L68.9274 65.4L71.2104 64.9309M65.4194 63.367L67.165 64.9708L68.9507 65.4L71.2337 64.9309L73.0328 64.698L75.8064 64.2953L78.2029 64.0757L81.4405 63.7031M65.4194 63.367L62.3621 64.1955L64.7585 67.1636L66.4775 66.751L71.2805 67.5229M71.2104 64.9309L74.0374 63.2672L77.4853 61.7066M71.2104 64.9309L73.0094 64.698L75.7831 64.2953L78.1795 64.0757L81.4171 63.7031L85.1554 61.2874M77.4853 61.7066L79.3244 60.1394L81.0199 58.9316M77.4853 61.7066L79.8951 61.5868L81.6308 60.9214L83.3664 59.82M85.1554 61.2874L85.5058 60.2459M85.1554 61.2874L88.4931 60.2093L89.7414 57.8069M89.7414 57.8069L91.1433 55.4777M89.7414 57.8069L88.5198 60.2259M88.5198 60.2259L91.4503 59.4573M88.5198 60.2259L91.4537 59.4407M88.5198 60.2259L85.1821 61.304L81.4405 63.7031M91.4503 59.4573L90.9864 58.2794M91.4503 59.4573L92.989 58.519M92.989 58.519L94.6579 57.564L97.3648 56.426L100.162 55.4511M92.989 58.519L91.4537 59.4407M91.4537 59.4407L93.8535 59.8732L97.4449 58.8517M81.4405 63.7031L85.4958 64.5515M85.4958 64.5515L87.5786 63.3437L89.4744 62.5917L92.8555 61.9063L95.8595 61.6068L98.3094 61.4371M85.4958 64.5515L86.4237 65.633M71.2805 67.5229L73.3432 66.7876L75.012 66.5746L77.3484 66.5313L79.5981 66.4482L81.9545 66.1953M71.2805 67.5229L73.6836 69.0103M81.9545 66.1953L82.9959 65.2137M81.9545 66.1953L84.4945 67.0138M73.6836 69.0103L75.1923 68.8672L77.0881 68.6509L79.3377 68.2516M73.6836 69.0103L75.8798 71.0533L77.7323 70.7205L80.9699 70.1482M80.9699 70.1482L81.9178 68.5012M80.9699 70.1482L83.9338 69.1666L87.4484 67.7459M87.4484 67.7459L88.8769 65.7694L91.0799 64.0491M87.4484 67.7459L89.401 67.1336L92.0178 66.1154L93.7934 65.257M87.4484 67.7459L88.146 68.5877M87.4484 67.7459L83.9505 69.1567L85.7328 69.6558L90.4524 70.1782M90.4524 70.1782L94.264 68.947M90.4524 70.1782L91.8742 71.2363L94.7413 72.7536M90.4524 70.1782L85.7428 69.6558L83.9605 69.1567L80.9966 70.1382M94.264 68.947L95.3788 66.5912L96.25 64.9275L97.0277 63.2638M94.264 68.947L95.9162 67.9056L97.505 66.9073M94.264 68.947L95.4122 70.7904M80.9966 70.1382L82.7122 71.0466L85.0486 71.6589L88.5599 72.4441M80.9966 70.1382L81.7175 71.1132M80.9966 70.1382L77.759 70.7106L75.9065 71.0433L76.4907 72.1979L78.757 73.1595L81.2769 73.4923L85.4458 74.1211M88.5599 72.4441L90.0919 72.1813M88.5599 72.4441L91.724 72.9399M88.5599 72.4441L89.6213 73.4424L92.5318 74.6635L94.9249 75.3989M85.4458 74.1211L87.6854 75.2392M85.4458 74.1211L81.2669 73.5022L78.747 73.1695L76.4773 72.2046L75.8932 71.05L73.697 69.0069L71.2938 67.5196L66.4908 66.7476L64.7719 67.1602L65.9735 68.4546L68.7972 69.1833L71.4373 70.7937L73.6069 72.8135L75.7897 75.2392M87.6854 75.2392L90.2488 76.2573L93.2694 78.5865M87.6854 75.2392L90.2755 78.713M75.7897 75.2392L77.4586 75.0495L79.825 75.3822L82.6888 76.2307L85.1187 77.3154L88.1226 79.1755M75.7897 75.2392L78.5767 78.0042M78.5767 78.0042L80.1221 76.9827M78.5767 78.0042L80.4158 79.1555M78.5767 78.0042L77.7289 80.0007L77.9593 82.1934L78.9606 84.1666L80.1688 85.5275L78.9672 84.1832L77.9659 82.2101L77.7356 80.0173L78.5834 78.0209L75.7964 75.2558M80.4158 79.1555L82.0113 78.6996L84.0339 78.9392L86.3203 79.435M80.4158 79.1555L82.6521 80.4865L85.873 80.939L88.8503 81.2118L90.3289 82.3565M80.4158 79.1555L80.1588 80.9789L81.5673 83.3547L83.3597 85.0616L83.1294 86.5124M90.3289 82.3565L91.664 84.4194M90.3289 82.3565L88.8503 81.1885L85.873 80.9157M85.873 80.9157L87.5152 82.6825L89.7147 85.2912M85.873 80.9157L82.6521 80.4632L83.7068 82.8655M83.7068 82.8655L85.2856 83.4778L87.2148 85.2713M83.7068 82.8655L83.373 85.0517M83.373 85.0517L84.865 86.4725L87.7321 88.7417M83.373 85.0517L83.1427 86.5024L85.1187 88.419L86.5472 90.675L85.112 88.4323L83.1294 86.5124M83.1294 86.5124L82.9391 89.3972M83.1294 86.5124L80.9966 87.1546M75.7964 75.2558L75.5561 78.0342L75.6762 80.0938M75.7964 75.2558L73.6135 72.8301L71.444 70.8104L68.8039 69.1999L65.9802 68.4712L66.6477 70.3645L68.2999 71.2529L70.3025 72.727L73.0628 75.1992M73.0628 75.1992L74.6883 76.8629M73.0628 75.1992L70.2858 72.7203L68.2832 71.2463L66.631 70.3579L66.8012 73.4058L69.1577 75.0695M69.1577 75.0695L70.2892 75.908M69.1577 75.0695L71.3339 76.793L72.9827 80.0007L74.5481 82.8057L76.0834 85.8003L78.0861 88.2826L80.9365 88.8482L82.5152 91.6532M82.5152 91.6532L83.5166 93.6164L83.6668 95.7659M82.5152 91.6532L82.0346 92.6348M82.5152 91.6532L80.9532 88.8416L78.1028 88.2759L79.2242 90.0095L80.1955 91.1674L80.9565 94.7111L80.8197 97.3996L80.2723 100.155L80.8197 97.393L80.9565 94.7044L80.1955 91.1707L79.2242 90.0128M79.2242 90.0128L79.1208 92.2788L79.0474 94.4382L78.9072 98.0518L78.8538 101.412L78.9739 104.677M79.2242 90.0128L78.1028 88.2726M78.1028 88.2726L76.4105 89.5636M78.1028 88.2726L76.1001 85.7903M76.1001 85.7903L75.3458 87.5971M76.1001 85.7903L74.5648 82.7957L73.8972 84.2364L73.6369 86.3959L74.4914 90.2524M74.4914 90.2524L75.5427 91.5634L77.5654 93.9591M74.4914 90.2524L74.9152 94.2253M74.9152 94.2253L75.9166 96.1219L76.6475 97.8921M74.9152 94.2253L74.735 96.9404L76.1068 99.6556L76.5975 103.648M76.5975 103.648L77.2216 105.362M76.5975 103.648L75.3325 107.418M75.3325 107.418L76.1369 108.813M75.3325 107.418L74.448 108.613L73.2764 110.137L72.0381 111.654C74.394 111.01 76.7053 110.213 78.9572 109.268L79.2076 109.052M79.2076 109.052L77.8091 107.269" stroke="#CB3546" stroke-width="0.5" stroke-miterlimit="10"/>
<path d="M61.1405 113.518L62.0617 113.441L60.9202 113.138L61.1405 113.518Z" stroke="#CB3546" stroke-width="0.5" stroke-miterlimit="10"/>
<path d="M78.9572 109.268L79.5447 109.016L79.2109 109.052L78.9572 109.268Z" stroke="#CB3546" stroke-width="0.5" stroke-miterlimit="10"/>
<path d="M107.248 37.5364L109.033 36.0823L109.424 35.6997C109.177 35.1008 108.923 34.5051 108.656 33.9162L108.025 35.164L107.248 37.5364Z" stroke="#CB3546" stroke-width="0.5" stroke-miterlimit="10"/>
<path d="M41.6415 54.0569L40.3598 50.7728L39.0915 50.0474L37.1422 48.5135L33.5742 44.464L30.8272 43.9749L29.5088 42.8735L28.0669 40.5909L26.9688 37.8791L26.0209 35.1207L24.4021 33.3272L23.0103 32.1061L21.5851 31.0846L22.7066 33.6733L23.6211 35.5699L24.7159 37.8059L25.9108 40.1085L27.069 42.7737L29.1484 44.6836L30.4467 46.4372L31.388 48.4003L32.1824 50.1605L33.2471 52.0305L34.5455 53.9405L37.5094 55.8105L39.3284 56.3362L39.0714 54.7091L37.9199 53.7308L35.9106 51.9008L33.7611 49.8311L35.9106 51.9008L37.9199 53.7308L39.0714 54.7091L39.1649 53.1585L38.2303 51.4982L36.3879 49.6781L34.1983 47.9678L32.4227 46.71L34.1983 47.9678L36.3879 49.6781L38.2303 51.4982L39.1649 53.1585L39.0714 54.7091L39.3284 56.3362L41.2176 58.2095L41.8718 56.05L41.6415 54.0569Z" stroke="#CB3546" stroke-width="0.5" stroke-miterlimit="10"/>
<path d="M99.4709 35.317L103.142 32.7549L105.649 32.4421L107.365 31.6169L107.498 31.4938C107.905 32.2891 108.296 33.0976 108.666 33.9129L108.035 35.1606L107.258 37.5331L105.172 41.4095L103.837 43.3327M99.4709 35.317L101.006 34.8046M99.4709 35.317L96.2533 37.4266L94.8682 38.7176L93.5531 40.5943L92.6519 42.1981L91.4537 43.2129L88.3396 45.8582L86.2969 49.3054L89.915 49.1191M89.915 49.1191L90.6559 48.244L92.0244 45.8083M89.915 49.1191L92.9189 48.5501L93.5865 46.8065L95.0451 44.0215L97.2813 40.5444M97.2813 40.5444L98.0557 38.3682M97.2813 40.5444L100.202 38.305L99.8347 36.9341L100.192 38.3017M100.192 38.3017L102.064 37.4798L103.553 36.2121M100.192 38.3017L97.2713 40.541L95.035 44.0182L93.5765 46.8032L92.9089 48.5468L95.3288 47.8813L95.6926 46.3074L97.5851 43.2529L99.047 41.3529L97.5984 43.2562L95.7059 46.3107L95.3421 47.8846M95.3421 47.8846L98.1258 46.0678L100.095 44.108L102.224 41.4195M95.3421 47.8846L97.9155 48.4869L101.817 47.1093L103.837 43.3327M103.837 43.3327L104.341 41.0035L104.701 39.2766L105.315 35.7096" stroke="#CB3546" stroke-width="0.5" stroke-miterlimit="10"/>
<path d="M103.136 32.7549L105.642 32.4422L107.355 31.6103L107.488 31.4872C107.154 30.8217 106.804 30.1928 106.443 29.5573L104.387 31.2776L103.136 32.7549Z" stroke="#CB3546" stroke-width="0.5" stroke-miterlimit="10"/>
<path d="M44.2582 100.94L46.5947 98.7272L47.4524 101.306L46.1774 104.713L44.1748 107.255L41.2343 111.135L38.5908 110.536L38.4172 110.563C36.9575 110.057 35.5268 109.495 34.1249 108.876L35.2631 108.227L36.0141 107.142L38.3104 105.379L39.3117 103.562L42.8097 100.334L43.0567 97.8022L44.3918 93.9225L46.0773 89.8131L48.9377 86.0465L49.9958 84.2331L50.8469 86.6421L49.9791 89.0612L48.0165 95.0505M44.2582 100.94L44.0847 102.271L43.7743 104.061M44.2582 100.94L42.1288 102.817M42.1288 102.817L40.6802 105.036L39.1549 107.575L37.8531 109.511M42.1288 102.817L44.2549 100.947L46.5913 98.7339L48.0165 95.0505M48.0165 95.0505L46.134 96.4779" stroke="#CB3546" stroke-width="0.5" stroke-miterlimit="10"/>
<path d="M38.5908 110.53L38.4172 110.556C39.2294 110.836 40.0494 111.099 40.8771 111.345L41.2342 111.132L38.5908 110.53Z" stroke="#CB3546" stroke-width="0.5" stroke-miterlimit="10"/>
<path d="M40.8771 111.345L41.2409 111.451V111.118L40.8771 111.345Z" stroke="#CB3546" stroke-width="0.5" stroke-miterlimit="10"/>
<path d="M41.2409 111.468C41.9886 111.69 42.7429 111.889 43.5039 112.067L41.2343 111.148L41.2409 111.468Z" stroke="#CB3546" stroke-width="0.5" stroke-miterlimit="10"/>
<path d="M111.59 44.1479L112.428 45.389C112.144 44.0581 111.81 42.7271 111.427 41.4261V41.4727L111.59 44.1479Z" stroke="#CB3546" stroke-width="0.5" stroke-miterlimit="10"/>
<path d="M81.5673 83.358L83.3597 85.0649L83.7068 82.8788L82.6521 80.4765L80.4158 79.1588L80.1588 80.9822L81.5673 83.358Z" stroke="#CB3546" stroke-width="0.5" stroke-miterlimit="10"/>
<path d="M96.3668 19.9378L98.9669 19.8579L99.2673 19.5518C98.81 19.0427 98.3427 18.5536 97.8654 18.0445L97.4082 18.4305L96.3668 19.9378Z" stroke="#CB3546" stroke-width="0.5" stroke-miterlimit="10"/>
<path d="M4.28564 53.8373L5.62073 54.7457L5.51059 52.7027L4.84304 48.986L3.84173 45.3458L3.11076 43.1797L2.53668 41.5359C1.859 43.8851 1.33608 46.276 0.971283 48.6932L1.82908 50.4766L4.28564 53.8373Z" stroke="#CB3546" stroke-width="0.5" stroke-miterlimit="10"/>
<path d="M3.5914 70.1582L3.67151 67.6161L1.40186 68.1185C1.64885 69.3863 1.94257 70.6374 2.273 71.8718L2.56338 71.6456L3.5914 70.1582Z" stroke="#CB3546" stroke-width="0.5" stroke-miterlimit="10"/>
<path d="M14.2922 76.9794L11.0145 79.1921H8.30094L5.00326 79.465L4.88978 79.4017C4.33906 78.0841 3.80502 76.7398 3.33774 75.3723L4.98324 74.7866M14.2922 76.9794L11.622 76.6034L9.42909 76.7232M14.2922 76.9794L17.9937 74.76L19.6993 74.028L15.9243 73.5355M15.9243 73.5355L13.3943 73.7884L10.9444 74.3574L8.31095 75.2924L6.46852 76.0777M15.9243 73.5355L19.6926 74.0413L22.5864 74.9863L24.589 73.5322L23.3641 72.504M23.3641 72.504L21.3014 71.2529M23.3641 72.504L24.599 73.5355L28.4842 73.103L26.7853 71.5391L23.4943 69.4595L18.5678 69.9985M18.5678 69.9985L17.2894 71.243L14.3189 72.0116L11.425 72.2345M18.5678 69.9985L17.1326 69.8188H14.0552L10.594 70.6074L7.53326 72.4042L4.98324 74.7866M4.98324 74.7866L4.73958 76.7332" stroke="#CB3546" stroke-width="0.5" stroke-miterlimit="10"/>
<path d="M2.00263 65.3268L3.67149 67.6161M3.67149 67.6161L3.51462 66.4082M3.67149 67.6161L7.42309 67.4464M3.67149 67.6161L1.40184 68.1185C0.995449 66.0579 0.705721 63.9761 0.534027 61.883L1.25164 62.0893L4.48589 62.219L7.11268 62.026H9.7328L9.01185 62.9244L9.73614 62.026L13.1039 61.2541M7.42309 67.4464L6.14141 66.1154M7.42309 67.4464L5.67412 65.217M5.67412 65.217L3.87843 64.3885M5.67412 65.217L7.42977 67.443L12.7701 67.9821L15.5838 68.2383L18.5611 70.0018L23.4876 69.4628M23.4876 69.4628L23.097 67.839M23.4876 69.4628L26.7852 71.5391L28.4841 73.093L32.1556 73.7751L30.4267 72.0848L28.7044 70.4444L30.4334 72.0914L32.1623 73.7817L36.8985 75.8647L37.8364 76.62L41.0507 74.9563M41.0507 74.9563L40.0694 75.0495M41.0507 74.9563L45.0326 72.7868M45.0326 72.7868L44.2148 72.6404M45.0326 72.7868L48.1867 71.7088M48.1867 71.7088L46.401 70.7105M48.1867 71.7088L52.706 72.8467L55.236 69.5193L52.2821 67.8789M52.2821 67.8789L50.2795 68.1118L48.4104 68.8539M52.2821 67.8789L55.236 69.526L58.3167 67.8922L60.6331 65.6329M60.6331 65.6329L58.053 65.7461L55.6465 66.7776M60.6331 65.6329L62.3754 64.2055L58.1632 62.3887L53.694 63.8628M53.694 63.8628L52.6927 64.9575L49.2481 65.8126M53.694 63.8628L51.8248 64.0358L50.1093 64.658L47.4858 66.4082M53.694 63.8628L50.136 62.0027L47.5359 63.001M47.5359 63.001L47.1187 64.8177L45.1527 67.626L40.55 71.2363M47.5359 63.001L44.3417 61.5336L43.2169 64.5615L40.6101 66.0089M40.55 71.2363L38.5707 74.0546M40.55 71.2363L37.8331 72.4208M40.55 71.2363L38.8812 71.569L35.9873 72.4175M40.6101 66.0089L40.9439 68.4279M40.6101 66.0089L38.4372 68.5211L36.1676 69.5193L33.414 69.4095L30.0762 67.9821L27.593 67.117L23.6645 66.2452L21.1612 67.1469L18.1806 66.9539L14.9497 66.1753L11.9457 65.6396L9.34562 65.3934L11.9624 65.6396L14.9664 66.1753L18.1973 66.9539L21.1779 67.1469L23.6812 66.2452M23.6812 66.2452L21.7386 66.142L19.035 66.0788M23.6812 66.2452L20.5404 64.0491M23.6812 66.2452L27.5996 67.1236L30.0829 67.9887L33.4206 69.4162L36.1743 69.526L38.4439 68.5278L40.6168 66.0156M40.6168 66.0156L37.6495 66.0888M40.6168 66.0156L40.0861 64.1689M40.6168 66.0156L43.2235 64.5682L44.3483 61.5402L43.3203 61.4537L41.5547 61.8763L37.7563 63.3736L35.1629 65.583L32.3759 67.6859L35.1496 65.5664L37.743 63.357L35.3031 63.5966L32.2825 64.099L30.3733 64.495L27.3126 65.217L30.3599 64.485L32.2891 64.089L35.3098 63.5866L37.7497 63.347L41.548 61.8497L43.3136 61.4271L44.3417 61.5136L41.2176 58.1862L38.3838 58.7485L35.7737 59.8699M35.7737 59.8699L34.2417 61.0212M35.7737 59.8699L30.8339 58.4125L28.9815 60.1094L27.8133 61.5802M34.2417 61.0212L32.7664 62.0194L30.4868 62.5451M34.2417 61.0212L30.904 60.3557M27.8133 61.5802L28.0903 63.3969M27.8133 61.5802L25.0329 62.392M25.0329 62.392L22.6264 63.3703M25.0329 62.392L27.7999 61.5802L28.9681 60.1094L30.8205 58.4125L27.7498 57.8967L26.2078 58.7519M26.2078 58.7519L25.2065 60.1893L23.4742 61.8164M26.2078 58.7519L23.4575 57.8967L21.2847 59.8632L19.1519 61.314M19.1519 61.314L18.4509 63.3104M19.1519 61.314L16.3982 61.0212L15.7507 61.6101L13.3509 62.8113M13.3509 62.8113L11.2982 63.6265M13.3509 62.8113L15.7574 61.5968L16.4049 61.0078L13.1039 61.2541M13.1039 61.2541L12.1426 61.7133" stroke="#CB3546" stroke-width="0.5" stroke-miterlimit="10"/>
<path d="M4.88977 79.4017C4.9098 79.4417 4.92649 79.4849 4.94651 79.5248L5.00325 79.465L4.88977 79.4017Z" stroke="#CB3546" stroke-width="0.5" stroke-miterlimit="10"/>
<path d="M6.93246 80.7793L7.89039 81.4448L11.0145 79.1921H8.29759L4.99992 79.4683L4.94318 79.5282C5.27027 80.2913 5.61517 81.0455 5.97787 81.7908L7.88705 81.4581L6.93246 80.7793Z" stroke="#CB3546" stroke-width="0.5" stroke-miterlimit="10"/>
<path d="M4.48255 62.2024L7.10934 62.0094H9.72946L13.0972 61.2374L16.3982 60.9912L19.1519 61.284L21.2847 59.8333L23.4575 57.8967L21.8888 56.7255L20.9442 57.2246L18.471 57.9533H14.6993L10.0866 59.1612L7.79692 60.7483L3.50794 61.1809L1.05805 60.3024L0.390503 59.7102C0.420542 60.4422 0.467271 61.1676 0.52735 61.8929L1.24496 62.0992L4.48255 62.2024Z" stroke="#CB3546" stroke-width="0.5" stroke-miterlimit="10"/>
<path d="M0.527361 52.5063C0.467282 53.2606 0.420554 54.0214 0.387177 54.7889L2.67018 55.8737L0.527361 52.5063Z" stroke="#CB3546" stroke-width="0.5" stroke-miterlimit="10"/>
<path d="M4.51926 57.1647L6.97249 57.3311L5.61404 54.7457L4.27895 53.8373L1.82906 50.4767L0.971261 48.6932C0.779898 49.9487 0.631926 51.2198 0.527344 52.5064L2.67016 55.8737L4.51926 57.1647Z" stroke="#CB3546" stroke-width="0.5" stroke-miterlimit="10"/>
<path d="M4.86306 59.271L6.97251 57.3311L4.51928 57.1647L2.67018 55.8737L0.400525 54.789C0.353797 55.5676 0.333771 56.3761 0.333771 57.1747V57.2313L2.85375 59.068L4.86306 59.271Z" stroke="#CB3546" stroke-width="0.5" stroke-miterlimit="10"/>
<path d="M3.50795 61.1543L7.79692 60.7217L10.0866 59.1345L6.97251 57.3311L4.86306 59.271L2.86043 59.0813L0.333771 57.2313C0.333771 58.0498 0.353797 58.8628 0.39385 59.6702L1.06139 60.2625L3.50795 61.1543Z" stroke="#CB3546" stroke-width="0.5" stroke-miterlimit="10"/>
<path d="M5.9812 81.7875C6.22819 82.2899 6.48186 82.7857 6.7422 83.2881L7.89038 81.4547L5.9812 81.7875Z" stroke="#CB3546" stroke-width="0.5" stroke-miterlimit="10"/>
<path d="M12.7768 67.9821L15.5905 68.2383L18.5678 70.0018L17.1325 69.8221H14.0552L10.5939 70.6107L7.53324 72.4075L4.98321 74.79L3.33771 75.3722C2.94831 74.221 2.5934 73.0542 2.27298 71.8718L2.56336 71.6456L3.59138 70.1582L3.67149 67.6161L7.43644 67.4431M12.7768 67.9821L10.6073 68.4213M12.7768 67.9821L7.43644 67.4431M7.43644 67.4431L8.21079 69.1068L6.58198 71.0167L3.48791 73.0131M7.43644 67.4431L6.98251 68.0586" stroke="#CB3546" stroke-width="0.5" stroke-miterlimit="10"/>
<path d="M39.1248 99.0567L37.1222 100.654L33.5975 101.319L30.6837 102.983L28.9948 102.777L26.9121 104.031L26.3046 104.663C25.6059 104.217 24.9228 103.757 24.2552 103.282L26.6818 102.151L30.2932 100.734L33.1737 99.4526L34.2985 98.3978L38.9279 95.5695L41.6515 92.8344L43.7242 90.9311L46.0806 89.8364L44.3751 93.9458M39.1248 99.0567L37.8398 98.8038M39.1248 99.0567L43.04 97.8255L44.3751 93.9458M44.3751 93.9458L43.0166 94.9972L41.4545 96.235" stroke="#CB3546" stroke-width="0.5" stroke-miterlimit="10"/>
<path d="M34.2984 98.4111L33.1736 99.4659L30.2932 100.747L26.6818 102.154L24.2552 103.286C22.9135 102.332 21.6151 101.326 20.3601 100.268L22.1925 98.491L23.4709 97.2865L25.7472 94.9307M34.2984 98.4111L31.1009 98.318M34.2984 98.4111L38.9279 95.5829L41.6515 92.8477L43.7075 90.9312L46.0873 89.8132L48.9477 86.0465L50.0058 84.2331L48.5806 81.2717L46.3944 82.8722L46.3176 83.8704L45.4231 86.6188L44.2983 88.8415L45.4264 86.6155L46.3209 83.8671L46.3977 82.8689L45.1127 83.724L43.0299 86.0831L41.5013 88.1295L40.263 89.8398M40.263 89.8398L37.6161 93.3369M40.263 89.8398L41.5013 88.1395L43.0299 86.0931L45.1127 83.734L46.3977 82.8788L48.5806 81.2784L47.913 78.3137L44.5219 80.7759L43.5206 82.4729L42.7796 84.1366L41.1808 86.0499L39.2583 87.7435L37.5694 89.0112L35.9706 90.1725L37.5627 89.0245L39.2516 87.7568L41.1742 86.0632L42.7729 84.1499L43.5139 82.4862L41.6915 83.2981L39.7556 84.263M37.6161 93.3369L37.3425 94.9107M37.6161 93.3369L34.946 94.7743M34.946 94.7743L33.3338 96.0254M34.946 94.7743L34.5822 94.3051M39.7556 84.263L38.9212 85.5541L37.5561 86.7553L35.8872 87.9265M39.7556 84.263L36.0474 83.7739L39.769 84.2431L41.7049 83.2781L43.5273 82.4663L44.5286 80.7693M44.5286 80.7693L42.6227 81.0455M44.5286 80.7693L47.9197 78.307L49.2047 75.4954L45.4331 76.2307L43.1434 78.3369L41.2409 79.5248M41.2409 79.5248L40.0894 80.5796L37.2523 81.6577L35.1095 82.1202M41.2409 79.5248L37.7764 79.8576M41.2409 79.5248L43.1468 78.3503L45.4364 76.244M45.4364 76.244L43.3003 76.5501M45.4364 76.244L49.2081 75.5087L52.706 72.8467L48.1867 71.7088L45.0326 72.7868L41.054 74.9497L37.8398 76.6134L36.715 78.3702L34.6856 81.0321L34.5521 84.5226L35.2497 85.8835L34.5588 84.5159L33.2671 87.5306M33.2671 87.5306L33.4473 89.3806L33.2137 92.4351M33.2671 87.5306L30.8239 90.3954M30.8239 90.3954L29.8226 94.2818M30.8239 90.3954L27.5996 91.8063L25.7472 94.9307M29.8226 94.2818L30.4234 96.0653M29.8226 94.2818L28.6677 97.6558L26.4181 99.8552L24.7659 100.454L22.8601 100.547M29.8226 94.2818L28.2939 94.5281M25.7472 94.9307L25.7238 96.4147L24.3887 98.8271" stroke="#CB3546" stroke-width="0.5" stroke-miterlimit="10"/>
<path d="M30.6837 102.983L28.9948 102.777L26.9121 104.034L26.3046 104.667C27.0389 105.139 27.7844 105.595 28.5409 106.034L29.6357 104.194L30.6837 102.983Z" stroke="#CB3546" stroke-width="0.5" stroke-miterlimit="10"/>
<path d="M30.6837 102.983L29.6357 104.194L28.5409 106.034C29.2618 106.453 29.9928 106.853 30.7338 107.242L30.7638 106.058L30.6837 102.983Z" stroke="#CB3546" stroke-width="0.5" stroke-miterlimit="10"/>
<path d="M23.4709 97.2832L25.7472 94.9274L23.7446 95.1104L20.2266 96.2983L19.025 98.1017L18.6445 98.7672C19.2053 99.2796 19.776 99.782 20.3568 100.274L22.1925 98.491L23.4709 97.2832Z" stroke="#CB3546" stroke-width="0.5" stroke-miterlimit="10"/>
<path d="M18.234 87.2211L16.8989 89.0545L14.686 90.0061L12.7634 90.1259L10.7909 89.883C10.0677 88.8582 9.37232 87.809 8.70477 86.7353L10.5539 85.3345L12.4263 84.1266L13.8849 82.7957L16.1446 79.618L18.5577 77.1957L20.6505 75.9146L22.5964 74.9896M18.234 87.2211L16.5284 86.8884M18.234 87.2211L20.7907 85.1016L22.0857 82.8522M22.0857 82.8522L20.2967 82.5528L17.9102 83.551L15.6005 85.2946M22.0857 82.8522L24.5289 81.5945M15.6005 85.2946L14.3255 88.1761M15.6005 85.2946L12.2895 86.1464L9.32559 87.0248M24.5289 81.5945L22.1692 80.167M24.5289 81.5945L26.625 81.4048L29.9627 79.1156L32.3893 77.4685M32.3893 77.4685L29.866 75.9845L27.2558 76.4304L24.2519 78.0941M32.3893 77.4685L34.8725 76.9095L37.8331 76.63L36.8985 75.8647L32.1723 73.7884L28.5008 73.1063L24.599 73.5355L22.5964 74.9896M22.5964 74.9896L22.0557 76.8995L20.1932 78.7562L18.1906 80.4199L16.2046 82.3165" stroke="#CB3546" stroke-width="0.5" stroke-miterlimit="10"/>
<path d="M14.2855 76.9927L17.987 74.7733L19.6926 74.0413L22.5964 74.9896L20.6505 75.9146L18.5577 77.1957L16.1446 79.618L13.8849 82.7957L12.4263 84.1266L10.5505 85.3212L8.70144 86.722C8.0072 85.5996 7.353 84.4505 6.73886 83.2748L7.88704 81.4414L11.0145 79.1921L14.2855 76.9927ZM14.2855 76.9927L13.1072 80.3201L11.9758 82.2566" stroke="#CB3546" stroke-width="0.5" stroke-miterlimit="10"/>
<path d="M18.1639 98.3113L18.6479 98.7605L19.0284 98.095L18.1639 98.3113Z" stroke="#CB3546" stroke-width="0.5" stroke-miterlimit="10"/>
<path d="M21.2379 90.1293L20.1465 92.5017L18.2073 93.257L15.5805 92.8777L13.5311 92.2488L12.3162 91.9161C11.7933 91.2506 11.2848 90.5729 10.7909 89.883L12.7635 90.1259L14.686 90.0061L16.9089 89.0711L18.244 87.2378L20.8007 85.1182L22.0857 82.8522L24.5289 81.5745M21.2379 90.1293L19.8628 90.0993M21.2379 90.1293L23.8147 88.1761M23.8147 88.1761L22.8367 87.7834M23.8147 88.1761L26.0843 85.0217L26.625 81.3849L24.5289 81.5745M24.5289 81.5745L24.1952 84.7788" stroke="#CB3546" stroke-width="0.5" stroke-miterlimit="10"/>
<path d="M32.9767 82.1868L34.6923 81.0388L34.5588 84.5293L33.2671 87.5439L30.8239 90.4088L27.5996 91.8196L25.9675 91.8362L27.6163 91.8029L25.7639 94.9274L23.7613 95.1104L20.2266 96.2983L18.0471 95.706L15.4537 95.5929C14.3589 94.4249 13.3175 93.2038 12.3162 91.9327L13.5311 92.2655L15.5805 92.8843L18.2073 93.2637L20.1465 92.5017L21.2379 90.1193L23.8147 88.1761M32.9767 82.1868L31.4781 84.3729L30.1764 86.4891M32.9767 82.1868L31.4781 84.3662L30.1764 86.4824L26.5416 88.5421L30.1764 86.4891M32.9767 82.1868L34.6923 81.0288L36.7216 78.3669L37.8364 76.61L34.8759 76.8895L32.3926 77.4485L31.9988 79.2653L30.3733 82.0271M30.1764 86.4891L29.8426 88.5687M30.3733 82.0271L28.9447 84.2398L27.88 85.9434M30.3733 82.0271L31.9887 79.2686L32.3826 77.4519L29.9561 79.0989M29.9561 79.0989L28.5809 80.9024M29.9561 79.0989L26.6183 81.3882L26.0776 85.025M26.0776 85.025L26.2445 86.6887M26.0776 85.025L23.8147 88.1761M23.8147 88.1761L24.4488 90.6384L23.9048 94.0123" stroke="#CB3546" stroke-width="0.5" stroke-miterlimit="10"/>
<path d="M20.2266 96.2983L18.0471 95.7027L15.4537 95.5895C16.3282 96.5256 17.2316 97.4329 18.1639 98.3113L19.0284 98.1017L20.2266 96.2983Z" stroke="#CB3546" stroke-width="0.5" stroke-miterlimit="10"/>
<path d="M21.1044 23.741L24.1084 24.503L27.1123 25.5511L28.7812 27.4943L25.8106 27.2947L23.9048 27.0817L20.3468 26.5227L16.1012 25.1917L13.2074 21.5183V21.3153C14.3778 19.8934 15.6139 18.5336 16.9156 17.2359L16.9857 17.3025L19.252 19.1924L15.3535 19.7448L19.2653 19.1924L21.3281 19.3821L23.4642 20.2705M21.1044 23.741L19.5357 23.9007M21.1044 23.741L18.5043 22.4599M18.5043 22.4599L16.8355 21.9475M18.5043 22.4599L21.1011 23.751L24.105 24.513L27.109 25.5611L26.7352 24.4664L25.7005 23.3783L26.7452 24.4664L27.119 25.5611L28.7879 27.5043L31.695 29.341L33.3372 30.3625L33.1069 27.0018L32.2925 25.5544L30.5802 23.9573L26.8553 20.8029L23.4642 20.2705M23.4642 20.2705L21.5083 21.7845" stroke="#CB3546" stroke-width="0.5" stroke-miterlimit="10"/>
<path d="M34.0448 8.70117L35.4233 10.4214L36.7283 11.9953L33.2905 11.789L30.8406 9.48311L30.4467 7.29368V7.26041C32.1003 6.38425 33.7968 5.59133 35.5301 4.88464L36.8118 6.43854L39.6889 9.7493L40.7837 11.8855L41.271 14.1614L41.1107 16.1313L39.1081 14.025M34.0448 8.70117L32.1656 6.60491M34.0448 8.70117L35.4266 10.4214L36.715 11.9953M36.715 11.9953L37.4726 9.64948M36.715 11.9953L39.1081 14.025M39.1081 14.025L38.8678 11.1634" stroke="#CB3546" stroke-width="0.5" stroke-miterlimit="10"/>
<path d="M22.7166 15.123L21.9355 12.7939C21.3648 13.2431 20.8074 13.7022 20.2667 14.1714L21.3147 14.8036L22.7166 15.123Z" stroke="#CB3546" stroke-width="0.5" stroke-miterlimit="10"/>
<path d="M25.2365 16.8965L24.9028 14.2346L24.8327 11.4329L24.8594 10.6477C23.8625 11.3353 22.8879 12.0518 21.9355 12.7972L22.7165 15.1264L25.2365 16.8965Z" stroke="#CB3546" stroke-width="0.5" stroke-miterlimit="10"/>
<path d="M25.2198 16.8832L24.8861 14.2213L24.816 11.4196L24.8594 10.651C25.9363 9.90568 27.0411 9.20027 28.1737 8.53479L30.3733 12.2715L31.6683 14.3644L33.4974 16.9032L34.689 20.3803L31.2144 17.3424M25.2198 16.8832L25.2566 15.1097M25.2198 16.8832L26.8386 20.7896M26.8386 20.7896L26.7619 20.2206M26.8386 20.7896L30.5802 23.9573L32.2925 25.5711L33.1002 27.0185L33.3305 30.3792L34.8692 33.4104L36.241 29.8202L35.3098 27.7039L34.1983 25.2882M34.1983 25.2882L32.3759 22.5797M34.1983 25.2882L35.3098 27.6806L36.241 29.7969M32.3759 22.5797L30.7071 21.698M32.3759 22.5797L32.0088 21.3785L30.0061 19.2756L27.5663 17.2559M36.241 29.7969L37.5761 28.5325M36.241 29.7969L34.8692 33.3871L37.0487 36.9707L38.3004 37.8092L38.6542 34.5484L38.8111 32.3224V29.1846L37.98 26.6824L36.0474 23.3151L34.6656 20.3936L31.201 17.3557L29.3586 16.3575L28.0369 14.4176M28.0369 14.4176L26.7685 11.2732M28.0369 14.4176L29.372 16.3442L31.2144 17.3424M31.2144 17.3424L31.4247 15.8617" stroke="#CB3546" stroke-width="0.5" stroke-miterlimit="10"/>
<path d="M39.6922 9.7493L40.787 11.8855L41.2743 14.1614L41.1141 16.1312L42.3557 18.4205L43.4572 16.0913L43.4772 13.1566L42.8731 10.8074L41.9952 8.984L40.3264 6.36533L38.554 3.75C37.5294 4.09938 36.5214 4.48203 35.5267 4.88797L36.8084 6.44187L39.6922 9.7493Z" stroke="#CB3546" stroke-width="0.5" stroke-miterlimit="10"/>
<path d="M33.4974 16.9032L31.6683 14.3644L30.3733 12.2715L28.1637 8.5348C28.9092 8.09337 29.6679 7.66857 30.4401 7.26041V7.29368L30.8406 9.48311L33.2771 11.789L36.715 11.9953L39.1115 14.0217L41.1141 16.1279L42.3557 18.4172M33.4974 16.9032L33.2638 13.8387M33.4974 16.9032L34.6756 20.3936M34.6756 20.3936L35.1095 18.8597L35.0027 14.3478M34.6756 20.3936L36.0474 23.3151L37.9766 26.6824L38.8077 29.1846V32.3224L38.6509 34.5484L38.2971 37.8092L40.1128 40.8039M40.1128 40.8039L40.6134 39.1668L40.3998 37.0839M40.1128 40.8039L42.0754 42.9168L44.0046 43.3028M44.0046 43.3028L43.337 41.1167M44.0046 43.3028L45.0059 44.7602M43.337 41.1167L42.3357 40.7008M43.337 41.1167L43.2736 38.7476M45.0059 44.7602L46.1841 42.9035V40.3214L45.2362 38.3882L43.0667 36.4716L40.9672 35.2139M45.0059 44.7602L45.3964 47.1193L46.7315 49.0858L49.9724 50.7162M49.9724 50.7162L50.0225 48.1408M49.9724 50.7162L50.6633 53.1818L52.8495 54.942M50.0225 48.1408L48.6206 46.7167L47.0686 45.1728M50.0225 48.1408L50.0392 46.5437L49.1714 44.8001L47.6694 42.9068M52.8495 54.942L52.6126 52.9456M52.8495 54.942L56.3174 58.855L57.8361 59.3042M57.8361 59.3042L57.469 58.5988L55.6432 55.9369L54.2914 54.0436M57.8361 59.3042L58.7072 55.2249L57.0384 51.7377M57.0384 51.7377L55.1392 51.5181M57.0384 51.7377L56.7647 50.5066L55.6299 48.3538L53.8308 45.9181L51.9116 43.7753L50.3796 41.6025L48.9411 40.2715L47.0719 36.9441L45.1427 35.4601L43.9679 34.7381L42.8831 32.1127L42.3891 29.6605M55.1392 51.5181L53.6506 50.8227L52.3722 49.3254M55.1392 51.5181L54.4717 50.7096L53.0899 48.0743L52.0885 46.0778M42.3891 29.6605L40.8504 27.2547L39.7924 24.8158M42.3891 29.6605L42.6628 27.7705L42.329 25.2849L40.9539 22.5099M42.3891 29.6605L42.6828 27.7738L42.3491 25.2883L40.9539 22.5099M42.3891 29.6605L42.8731 32.1294L43.9578 34.7547L45.1327 35.4767M39.7924 24.8158L38.4206 23.1521L37.0087 19.8546M39.7924 24.8158L39.8925 22.9923M40.9539 22.5099L39.1615 20.5534M45.1327 35.4767L44.552 33.2807L44.3617 31.3608L44.4418 29.1247L44.7756 26.7024M45.1327 35.4767L47.0619 36.9608M47.0619 36.9608L47.1821 34.8179L46.8683 32.8747L46.2442 30.8783M47.0619 36.9608L48.9311 40.2882L50.3696 41.6191L50.0192 38.9306L49.9324 36.0757L49.7655 33.1742L49.138 30.5655M49.138 30.5655L47.8296 29.4941M49.138 30.5655L49.1814 28.0799M49.1814 28.0799L47.2822 27.4145M49.1814 28.0799L48.3703 26.536L46.1073 24.5396M46.1073 24.5396L44.1047 24.0039M46.1073 24.5396L44.8557 22.2104L42.3557 18.4172M42.3557 18.4172L39.0748 17.7151L36.7851 16.5072" stroke="#CB3546" stroke-width="0.5" stroke-miterlimit="10"/>
<path d="M47.7295 13.5692L47.1787 14.7038L46.3443 12.1284L47.2655 10.1852L47.9798 7.46671V4.63176L47.1854 2.44566L46.658 1.62712C47.3968 1.49181 48.1411 1.37091 48.891 1.26443L49.2782 1.72362L50.6566 3.21429L52.4156 4.64507L55.0391 5.53016L55.78 7.5266L52.3622 6.71804L50.0659 5.77971L52.3656 6.71804L55.7834 7.5266M47.7295 13.5692L48.397 11.8456L49.3215 9.18364M47.7295 13.5692L47.1821 14.7038L47.8162 18.5236M47.8162 18.5236L48.6139 16.86L49.0779 15.0465M47.8162 18.5236L47.6293 21.2055L49.0212 24.0638L50.3562 25.7774L51.5612 22.9491M51.5612 22.9491L50.8936 21.2122L50.0058 18.9163M51.5612 22.9491L52.5458 20.6865M52.5458 20.6865L52.2621 19.3555M52.5458 20.6865L52.9497 19.2058L52.3522 17.3025L52.953 19.2091L52.5491 20.6898L51.5645 22.9591L50.3596 25.7874L49.1814 28.0733L49.138 30.5588L49.7655 33.1675L49.9324 36.069L50.0191 38.9239L50.3796 41.6224L51.9116 43.7952L53.8308 45.9381L55.6499 48.3471L56.7847 50.4999L57.0584 51.7311L58.1432 49.7546L57.6358 48.2473M57.6358 48.2473L56.1605 46.384M57.6358 48.2473L58.1432 49.7579L57.0751 51.7211L58.7439 55.2082M58.7439 55.2082L60.039 53.0021M58.7439 55.2082L57.8728 59.2876L58.1865 62.3788L62.3988 64.1955L60.8567 63.2206L62.3754 64.1988L62.6858 60.6485L61.9582 59.1113M61.9582 59.1113L61.2239 57.97L61.0002 56.476M61.9582 59.1113L62.0616 56.5159L61.8247 51.5248L60.4395 47.2491L58.517 44.9199L56.5811 44.0614L54.495 43.2529L53.1065 41.7622L52.1352 39.5095L51.7347 36.7278M51.7347 36.7278L51.7881 34.4153L52.0184 32.1859M51.7347 36.7278L52.1219 39.4763L53.0932 41.7289L54.4817 43.2196L56.5677 44.0282M56.5677 44.0282L56.1305 42.8236L55.2293 40.6642L54.0244 38.0022M56.5677 44.0282L58.5036 44.8866L58.3935 43.1431L57.6325 40.6608L56.6312 38.5779L55.4062 36.5415L54.2981 34.9377L55.4029 36.5282L56.6512 38.5646L57.6525 40.6475L58.4135 43.1298L58.5237 44.8733L60.4462 47.2025L60.78 46.0412L60.8601 42.2081L60.0356 40.7839L58.9509 38.0954L57.6625 36.6979L56.3541 34.9344L54.6385 32.7017L52.8963 29.9832L52.4023 27.9502M52.4023 27.9502L52.7828 25.621L53.5671 23.5513M52.4023 27.9502L52.8695 30.0032L54.6118 32.7217L56.3274 34.9543L57.6358 36.7179L58.9242 38.1154M58.9242 38.1154L59.1011 36.3252L59.2313 34.3687M58.9242 38.1154L60.0089 40.8039L60.8334 42.228L61.344 40.8139L61.5643 38.9738L61.6511 35.0641L59.8521 32.3823M59.8521 32.3823L58.1832 32.6385L55.5631 30.7053L54.7687 28.985L54.4149 26.6924M59.8521 32.3823L59.2746 28.7221H57.9896L56.4075 27.8736L58.003 28.7454H59.288M59.288 28.7454L58.1966 26.8821M59.288 28.7454L60.9235 26.1534L59.8921 23.6246M58.1966 26.8821L56.6612 26.0669M58.1966 26.8821L57.4556 25.1385M57.4556 25.1385L55.5164 24.513M57.4556 25.1385L56.9049 23.7177L55.2527 22.3468M59.8921 23.6246L58.6839 22.1339L57.1051 21.1057L55.2827 20.4402M59.8921 23.6246L60.9168 26.1534L62.1551 23.924L61.7479 21.0591M61.7479 21.0591L59.4816 20.0609L57.1786 18.5902L55.0724 17.1627M61.7479 21.0591L61.1371 20.2472M61.7479 21.0591L63.2866 16.8766L61.5376 16.9365L58.2566 14.8635L53.6239 13.4727L52.2888 13.6424L50.1293 13.263L52.2921 13.6424L53.6272 13.4727M55.0724 17.1627L53.1566 16.108L51.204 15.3892M55.0724 17.1627L57.1719 18.6035L59.4749 20.0742L61.7412 21.0724L61.1371 20.2472M61.1371 20.2472L58.7106 17.8848L57.2253 16.5838L55.5564 15.2096M53.6272 13.4727L51.9016 11.3997M53.6272 13.4727L58.26 14.8635M51.9016 11.3997L50.2695 11.0104M51.9016 11.3997L52.2053 10.0421M58.26 14.8635L57.1685 13.1998M58.26 14.8635L61.541 16.9365L63.2899 16.8766L62.7492 15.9383L60.6999 13.0933M60.6999 13.0933L59.5984 12.4611M60.6999 13.0933L57.1786 11.047M57.1786 11.047L55.1359 11.6925M57.1786 11.047L56.2006 10.671L54.4516 9.92898M57.1786 11.047L55.7834 7.5266M55.7834 7.5266L53.3635 8.33848L50.9637 8.03569" stroke="#CB3546" stroke-width="0.5" stroke-miterlimit="10"/>
<path d="M47.6327 21.2388L49.0245 24.097L50.3596 25.8107L49.1814 28.0966L48.3703 26.5527L46.1073 24.5562L44.8557 22.227L42.3557 18.4338L43.4572 16.1046L43.4772 13.1699L42.8731 10.8207L41.9953 8.984L40.3364 6.37531L38.5641 3.75998C39.4252 3.46384 40.2997 3.18767 41.1809 2.93146L42.4225 5.92612L43.4238 8.95072L45.1628 10.6477L46.351 12.1617L47.1854 14.7371L47.8196 18.5569L47.6327 21.2388ZM47.6327 21.2388L46.2776 19.828L45.2762 17.7949" stroke="#CB3546" stroke-width="0.5" stroke-miterlimit="10"/>
<path d="M55.0424 5.51684L52.419 4.63175L50.66 3.20097L49.2815 1.71029L48.891 1.26442C49.968 1.10914 51.0627 0.984921 52.1753 0.891754L54.2013 1.75022L55.7834 1.83674L55.0424 5.51684ZM55.0424 5.51684L53.8876 4.07275L52.5925 2.42901" stroke="#CB3546" stroke-width="0.5" stroke-miterlimit="10"/>
<path d="M45.6567 6.10578L45.4665 9.23687L45.1627 10.6344L46.351 12.1284L47.2722 10.1852L47.9865 7.46669V4.63175L47.1921 2.44565L46.6647 1.62711C46.0217 1.74467 45.383 1.87333 44.7489 2.01308L44.9692 2.66193L45.6567 6.10578Z" stroke="#CB3546" stroke-width="0.5" stroke-miterlimit="10"/>
<path d="M42.4192 5.92611L42.289 4.48202L42.4192 5.91613L41.1775 2.92147C42.3491 2.58208 43.5406 2.28261 44.7422 2.01642L44.9692 2.66193L45.6567 6.1191L45.4665 9.25018L45.1628 10.6477L43.4205 8.95072L42.4192 5.92611ZM42.4192 5.92611L42.8497 4.50531L43.1601 2.4756" stroke="#CB3546" stroke-width="0.5" stroke-miterlimit="10"/>
<path d="M19.2653 19.1924L21.3281 19.3821L20.7206 17.5287L18.8682 15.3892C18.2006 15.9915 17.5331 16.6137 16.9156 17.2459L16.9857 17.3125L19.2653 19.1924Z" stroke="#CB3546" stroke-width="0.5" stroke-miterlimit="10"/>
<path d="M5.72085 33.6068L5.59068 33.3805C5.20128 34.1968 4.83969 35.0276 4.50592 35.8727L5.79428 36.9342L5.72085 33.6068Z" stroke="#CB3546" stroke-width="0.5" stroke-miterlimit="10"/>
<path d="M5.81766 32.908C5.7409 33.0677 5.66747 33.2407 5.5907 33.3905L5.72087 33.6167L5.81766 32.908Z" stroke="#CB3546" stroke-width="0.5" stroke-miterlimit="10"/>
<path d="M10.9344 39.8689L8.56794 39.2034L5.79429 36.9341L5.72086 33.6067L5.81765 32.908C7.13389 30.1524 8.67323 27.5083 10.4204 25.0021L12.4631 25.7541L16.1145 25.2017L20.3601 26.5327L23.9048 27.0917L25.8106 27.3046L28.7812 27.5043L31.6884 29.341L33.3305 30.3625L34.8692 33.3938L31.3012 31.9231M10.9344 39.8689L10.634 38.5579L9.77953 37.0339L8.12736 35.0907L6.77558 33.6533M10.9344 39.8689L13.2074 41.3729M13.2074 41.3729L13.1106 39.8855L12.957 37.8891M13.2074 41.3729L14.8762 43.1397L17.5898 44.7568M17.5898 44.7568L17.0591 42.8037L16.0344 40.7107L15.0331 38.6744M17.5898 44.7568L19.4322 48.2706L19.8428 51.0257L21.6685 53.3548L23.2473 54.7723L24.7826 55.3679M24.7826 55.3679L24.0483 53.4247L23.3207 51.7078L21.8754 48.7564L21.0377 46.7599L20.24 44.6603M24.7826 55.3679L26.5983 56.8253L27.7498 57.8967L30.8172 58.4158L29.4821 56.1964L28.1837 54.4462L26.7051 53.6543L25.0363 51.7211L23.6978 49.159M23.6978 49.159L22.6965 46.4505L22.029 44.3709M23.6978 49.159L25.0696 51.7178L26.7385 53.651L28.2171 54.4429M28.2171 54.4429L28.087 52.4465L27.4494 50.45L26.2412 48.8229L24.6491 47.5485M28.2171 54.4429L29.5155 56.1931L30.8506 58.4125L35.7904 59.8699L38.4005 58.7485M38.4005 58.7485L36.2777 57.4542L34.6089 56.6057L32.0255 55.2015L30.2598 54.0436M38.4005 58.7485L41.2509 58.2095L39.3618 56.3362L37.5427 55.8105L34.5788 53.9405L32.6329 53.3016L31.0175 51.9074M31.0175 51.9074L29.8993 50.0674L28.9648 48.1708L27.8032 46.537L26.1344 45.2892L24.0617 44.311M31.0175 51.9074L32.5996 53.3016L34.5454 53.9405L33.2471 52.0305L32.1823 50.1605L31.3746 48.4003L30.43 46.4405L29.135 44.6836L27.0556 42.7737L24.5156 42.0483M24.5156 42.0483L21.3948 42.1881M24.5156 42.0483L22.5129 39.5794L19.7259 38.1886L17.2126 37.1404L15.3769 36.6247L13.7714 35.2704M21.3948 42.1881L19.262 42.8536M21.3948 42.1881L19.4389 41.1433L17.0791 40.1051M13.7714 35.2704L11.2615 34.3687L10.4538 33.1276L10.3069 30.6021M13.7714 35.2704L12.8269 32.4455L12.1026 30.6121L12.8269 32.4521L13.7714 35.2704ZM13.7714 35.2704L15.3969 36.6347L17.2327 37.1504M17.2327 37.1504L16.4783 35.3769M17.2327 37.1504L19.746 38.1985L18.9449 36.4683L17.7767 33.5635L16.5117 31.8033L14.6292 29.8468L11.8289 28.9484M11.8289 28.9484L9.08194 29.2811M11.8289 28.9484L14.6292 29.8335L16.5117 31.79L17.7767 33.5502M17.7767 33.5502L17.1659 30.4557M17.7767 33.5502L18.9449 36.455L19.746 38.1852L22.533 39.596L22.2626 37.6928L21.4916 35.9359M21.4916 35.9359L20.2433 33.6899M21.4916 35.9359L22.2626 37.6795L22.533 39.5827L24.5356 42.0517L27.0756 42.777L25.9174 40.1151L24.7225 37.8126L23.6278 35.5765L22.6965 33.6733L21.575 31.0846M21.575 31.0846L19.8194 29.8301L18.2407 28.7121L16.6319 27.5076M21.575 31.0846L21.4482 30.7951M21.575 31.0846L23.0003 32.1061L24.3921 33.3272L26.0343 35.1207L25.9708 33.5735L25.3667 31.0646L25.9742 33.5735L26.0376 35.1207L26.9855 37.8791L28.0669 40.5943L29.5088 42.8769L30.8439 43.9782L33.5909 44.4674L32.5395 42.7138L31.5749 40.7972L30.4834 39.037L29.372 37.4033M29.372 37.4033L28.2639 35.6797M29.372 37.4033L30.4834 39.0337L31.5749 40.7939L32.5395 42.7105L33.5909 44.464L33.8479 40.8904L32.5328 38.1087M32.5328 38.1087L31.1977 37.207M32.5328 38.1087L32.5428 37.2669M32.5428 37.2669L30.7671 34.6748L29.5722 33.7465L27.5696 31.211L26.2278 29.9466M32.5428 37.2669L30.7805 34.6715L29.5856 33.7432L27.583 31.2077L26.2278 29.9466M32.5428 37.2669L32.5161 38.122L33.8312 40.9037M26.2278 29.9466L24.5089 28.8619M33.8312 40.9037L34.5955 38.7675M33.8312 40.9037L33.5742 44.4773L37.1422 48.5268L39.0914 50.0607L40.3598 50.7861L39.5988 47.5818L38.7176 46.547M38.7176 46.547L36.5748 44.0115L35.3332 42.3478M38.7176 46.547L39.5921 47.5918M39.5921 47.5918L39.285 45.6685L38.4072 44.0448L37.1722 42.2746M39.5921 47.5918L40.3531 50.7728L41.6348 54.0569L41.8651 56.0534L41.1975 58.2128L44.3216 61.5402L47.5158 63.0076L50.1159 62.0094L48.5272 60.2259L47.0052 59.5005L44.7255 57.3211M44.7255 57.3211L43.2736 55.1649M44.7255 57.3211L47.0085 59.5105L48.5305 60.2359M48.5305 60.2359L47.7829 58.2395L46.6681 56.8719L45.4665 55.6208M48.5305 60.2359L50.1393 61.9928L53.6973 63.8528L58.1665 62.3787M58.1665 62.3787L56.9583 61.7133L54.9556 60.1827L51.3809 57.188L49.0946 55.5243L47.2054 54.4396L44.829 53.0354L43.3036 51.4715L42.1555 49.0292L41.5513 46.7533M58.1665 62.3787L57.8528 59.2876L56.3341 58.8384L52.8662 54.9254L50.68 53.1652M50.68 53.1652L47.4658 52.0438L45.5332 50.8327M50.68 53.1652L49.9891 50.6996L46.7482 49.0691M46.7482 49.0691L44.4351 49.1457M46.7482 49.0691L45.4131 47.1027M45.4131 47.1027L43.7709 47.0428M45.4131 47.1027L45.0226 44.7435M45.0226 44.7435L43.5406 44.9631L41.6081 44.7402M45.0226 44.7435L44.0213 43.2861L42.092 42.9001L40.1295 40.7873M40.1295 40.7873L38.1502 40.4345M40.1295 40.7873L38.3137 37.7926L37.0487 36.9707L34.8559 33.3938L31.3012 31.9231M38.1502 40.4345L35.9339 40.5211M38.1502 40.4345L37.4092 39.3997M31.3012 31.9231L29.7491 30.8084" stroke="#CB3546" stroke-width="0.5" stroke-miterlimit="10"/>
<path d="M7.07599 39.2633L8.56795 39.2068L5.7943 36.9341L4.0153 37.1072C3.74605 37.8148 3.49016 38.528 3.24762 39.2467L5.06334 39.1801L7.07599 39.2633Z" stroke="#CB3546" stroke-width="0.5" stroke-miterlimit="10"/>
<path d="M4.50593 35.8727C4.33905 36.2853 4.17216 36.6979 4.01529 37.1138L5.7943 36.9408L4.50593 35.8727Z" stroke="#CB3546" stroke-width="0.5" stroke-miterlimit="10"/>
<path d="M23.4642 20.2705L21.3281 19.3821L20.7206 17.5121L18.8682 15.3726C19.3243 14.9578 19.7872 14.5529 20.2567 14.1581L21.3047 14.7903L22.7166 15.123L25.2365 16.8965L26.8553 20.8029L23.4642 20.2705ZM23.4642 20.2705L23.9348 18.0312" stroke="#CB3546" stroke-width="0.5" stroke-miterlimit="10"/>
<path d="M55.7834 1.83673L55.5431 0.702087C54.4116 0.732034 53.2901 0.798582 52.1753 0.891749L54.2013 1.75022L55.7834 1.83673Z" fill="#CB3546" stroke="#CB3546" stroke-width="0.5" stroke-miterlimit="10"/>
<path d="M6.98587 57.3311L5.62741 54.7457L5.51727 52.7027L4.84972 48.986L3.8484 45.3458L3.12746 43.1763L2.54669 41.5326C2.76698 40.7673 3.00396 40.0064 3.25763 39.25L5.07335 39.1835L7.07599 39.2633L8.57796 39.2001L10.9444 39.8656L13.2174 41.3696L14.8863 43.1364L17.5998 44.7535L19.4289 48.2673L19.8394 51.0224L17.8735 49.9409L16.6886 47.7083M6.98587 57.3311L8.46114 55.2714M6.98587 57.3311L10.1 59.1346L14.686 57.9267L13.1173 56.7322L11.1146 55.2581L7.4932 51.7843L6.63207 50.0208L6.34169 47.7748L6.62873 50.0208L7.48986 51.7843L11.1413 55.2581L13.144 56.7322L14.7127 57.9267H18.4843L20.9576 57.198L21.9022 56.6989L20.1932 55.3679M20.1932 55.3679L18.9182 55.9236M20.1932 55.3679L18.6746 54.037L17.6199 54.0037L12.947 53.2284L10.8343 51.9574M10.8343 51.9574L9.2889 49.9975L8.28758 48.0177L7.28626 45.4423L6.58534 43.0499M10.8343 51.9574L12.9404 53.2384L17.6132 54.0137L18.6679 54.047L16.8856 52.6262M16.8856 52.6262L15.5972 52.2934L13.5578 50.6297L12.1994 48.8296M16.8856 52.6262L15.8175 51.242M15.8175 51.242L14.686 49.708L13.0171 47.6783L11.2582 46.2509L8.60466 44.7802M15.8175 51.242L16.8789 52.6461L18.6612 54.0669L20.1799 55.3979L21.8888 56.7288L23.4575 57.9001L26.2078 58.7652L27.7499 57.8968L26.6084 56.8253L24.7926 55.3679L23.2573 54.7723L21.6952 53.3515L19.8695 51.0224L17.9036 49.9409L16.6853 49.2755L15.3535 47.9146L16.6719 49.2888L17.8902 49.9543L16.6886 47.7083M16.6886 47.7083L15.4003 46.3008L13.4644 44.6803L11.168 43.3793L9.04524 42.228L7.39307 41.7755L4.33905 41.7123L7.39974 41.7755L9.05192 42.228L11.1747 43.3793L13.4711 44.6803M16.6886 47.7083L15.4069 46.3008L13.4711 44.6803M13.4711 44.6803L11.118 42.2314" stroke="#CB3546" stroke-width="0.5" stroke-miterlimit="10"/>
<path d="M13.2074 21.3253C13.1807 21.3553 13.1573 21.3885 13.1306 21.4218L13.2141 21.5283L13.2074 21.3253Z" stroke="#CB3546" stroke-width="0.5" stroke-miterlimit="10"/>
<path d="M13.1306 21.4218L13.0305 21.5449H13.2141L13.1306 21.4218Z" stroke="#CB3546" stroke-width="0.5" stroke-miterlimit="10"/>
<path d="M16.1012 25.1918L13.2141 21.5316H13.0305C12.1159 22.6407 11.2459 23.7931 10.4204 24.9888L12.4631 25.7408L16.1012 25.1918Z" stroke="#CB3546" stroke-width="0.5" stroke-miterlimit="10"/>
<path d="M57.0751 1.19141e-05C49.5829 -0.00915681 42.1638 1.46766 35.2497 4.34448C28.3356 7.2213 22.0647 11.4406 16.8021 16.7568C17.2402 16.8525 17.6666 16.9953 18.0738 17.1827C18.6579 17.4323 19.2353 17.6851 19.8862 17.6086C20.3703 17.5289 20.8368 17.3657 21.2646 17.1261C21.9756 16.7934 22.6832 16.3309 23.4842 16.2311C25.0596 16.0347 25.9441 17.4056 26.0409 18.8098C26.1778 20.9227 24.3988 22.7727 24.8961 24.889C25.4334 27.1716 28.2605 27.7439 29.8159 26.2865C29.9795 26.1314 30.1251 25.9583 30.2498 25.7707C31.4213 24.0105 30.173 21.8777 29.6623 20.1141C29.2418 18.6567 29.2752 17.0063 30.6403 16.0414C31.2811 15.6034 32.0469 15.3839 32.8232 15.4159C33.5999 15.4409 34.352 15.6932 34.986 16.1412C38.7009 18.8031 36.8251 24.32 36.0641 27.9169L35.3966 31.058C35.3498 31.2643 35.3064 31.4739 35.2631 31.6835C35.0866 32.4516 34.9551 33.2293 34.8692 34.0127C34.8292 34.4385 34.8225 34.8668 34.8492 35.2937C34.8989 36.1042 35.1576 36.8881 35.6002 37.5697C36.2204 38.4895 37.1514 39.1566 38.2236 39.4497C38.7434 39.6028 39.2838 39.6746 39.8257 39.6626C40.4166 39.6571 41.0001 39.5305 41.5398 39.2907C42.0796 39.0508 42.5641 38.7029 42.9632 38.2684C44.3317 36.7445 44.5152 34.5517 44.2315 32.6119C43.9211 30.4923 42.9865 28.5724 42.1588 26.6225C41.331 24.6727 40.4566 22.4666 40.7202 20.3337C40.8537 19.229 41.588 17.7284 42.8397 17.775C42.9778 17.7814 43.1146 17.8048 43.2469 17.8449C43.6876 17.9837 44.0655 18.2722 44.315 18.6601C44.606 19.1266 44.8669 19.6112 45.096 20.1108C45.199 20.3114 45.3173 20.5038 45.4498 20.6864C45.5497 20.8535 45.6868 20.9954 45.8507 21.101C46.0145 21.2066 46.2005 21.2731 46.3944 21.2954C47.3223 21.3187 48.1667 19.8313 48.7842 19.1725C48.999 18.9196 49.2663 18.7164 49.5678 18.5768C49.8692 18.4371 50.1974 18.3645 50.5298 18.3639C51.5612 18.3839 52.4857 18.9961 53.5137 19.0826C53.6306 19.0826 53.7507 19.0826 53.8675 19.0826C55.6265 19.0826 57.2486 18.1177 58.7106 17.2359C60.2459 16.3109 61.8147 15.2861 63.597 14.9068C64.0877 14.8053 64.5878 14.7551 65.089 14.757C67.9627 14.757 70.9934 16.1612 73.8305 16.1346C75.0711 16.1511 76.2875 15.7914 77.3184 15.1031C77.3521 15.0801 77.3912 15.0663 77.4319 15.0631C77.4653 15.0132 77.4986 14.9633 77.5353 14.9167C77.601 14.8248 77.6723 14.737 77.749 14.6539C78.2863 14.0701 79.0314 13.719 79.825 13.6756C80.4174 13.6578 81.0027 13.8082 81.5127 14.1092C82.0226 14.4103 82.4363 14.8495 82.7055 15.3759C83.3563 16.6769 83.2629 18.3905 83.0793 19.7814C83.0593 19.9345 83.0326 20.0908 83.0025 20.2506C82.5486 22.6163 81.0833 25.3049 81.7709 27.6607C81.9014 28.1148 82.1103 28.5426 82.3884 28.9251C83.1394 29.9699 84.391 30.3692 85.4691 29.89C85.7314 29.7709 85.9726 29.6102 86.1834 29.4142C87.2548 28.416 87.6053 26.8887 87.3916 25.4912C86.9444 22.5631 84.2575 19.5318 85.4157 16.4773C85.5718 16.0315 85.8243 15.6255 86.1554 15.2879C86.4865 14.9504 86.888 14.6896 87.3316 14.5241C87.4647 14.4836 87.6009 14.4536 87.7388 14.4343C88.2365 14.3751 88.7401 14.477 89.1753 14.7251C89.6104 14.9732 89.954 15.3542 90.1553 15.8118C90.3231 16.3456 90.2838 16.9227 90.0451 17.4289C89.7915 18.0944 89.2341 18.903 89.6313 19.6184C89.8125 19.919 90.1017 20.1396 90.4402 20.2354C90.7786 20.3311 91.141 20.2949 91.4537 20.1341C91.6004 20.0631 91.7346 19.9687 91.8508 19.8546C92.5184 19.1891 92.4917 18.3273 92.4016 17.4655C92.3556 17.0858 92.3646 16.7014 92.4283 16.3242C92.4803 15.9564 92.6494 15.6149 92.9108 15.3501C93.1722 15.0853 93.512 14.9112 93.8802 14.8535C94.0362 14.8214 94.1949 14.8036 94.3541 14.8003C94.778 14.7962 95.1976 14.886 95.5824 15.0631C85.1201 5.36692 71.3601 -0.0156638 57.0751 1.19141e-05ZM28.1637 25.0553C28.3765 24.9293 28.5607 24.7604 28.7044 24.5595C28.8172 24.3604 28.9047 24.1481 28.9648 23.9273C28.9713 23.8906 28.9913 23.8576 29.021 23.8349C29.0506 23.8121 29.0877 23.8012 29.125 23.8042C29.1632 23.8102 29.1978 23.8304 29.2218 23.8608C29.2445 23.8901 29.2553 23.927 29.2518 23.9639C29.2153 24.2445 29.1027 24.5098 28.9263 24.7314C28.7499 24.953 28.5163 25.1225 28.2505 25.2217C28.2355 25.2279 28.2188 25.229 28.2031 25.2248C28.1874 25.2206 28.1735 25.2113 28.1637 25.1984C28.1451 25.1792 28.1348 25.1535 28.1348 25.1269C28.1348 25.1002 28.1451 25.0745 28.1637 25.0553ZM29.4688 24.8424C29.4891 24.8129 29.5189 24.7912 29.5533 24.7809C29.5878 24.7707 29.6247 24.7726 29.6579 24.7862C29.6911 24.7998 29.7186 24.8244 29.7358 24.8558C29.753 24.8873 29.7589 24.9236 29.7525 24.9588C29.5729 25.4569 29.2335 25.8821 28.787 26.1684C28.3405 26.4548 27.8117 26.5863 27.2825 26.5427C27.2604 26.5385 27.2403 26.5268 27.2259 26.5094C27.2115 26.4921 27.2037 26.4703 27.2037 26.4478C27.2037 26.4253 27.2115 26.4036 27.2259 26.3862C27.2403 26.3689 27.2604 26.3572 27.2825 26.353C27.7578 26.3528 28.2217 26.208 28.6124 25.9381C29.003 25.6682 29.3017 25.286 29.4688 24.8424ZM38.8444 38.3782C38.814 38.3986 38.7775 38.408 38.741 38.4049C38.5978 38.4044 38.4549 38.3921 38.3137 38.3682C38.253 38.3581 38.1928 38.3448 38.1335 38.3283C37.5739 38.1719 37.0667 37.8686 36.6649 37.4499C36.0995 36.9006 35.7183 36.1905 35.5735 35.4168C35.5686 35.4017 35.5686 35.3854 35.5735 35.3703C35.577 35.3633 35.5822 35.3572 35.5886 35.3526C35.595 35.3479 35.6024 35.3449 35.6102 35.3436C35.6169 35.3404 35.6244 35.3387 35.6319 35.3387C35.6394 35.3387 35.6468 35.3404 35.6536 35.3436H35.6736C35.6749 35.3514 35.6749 35.3592 35.6736 35.3669C35.8652 35.9751 36.1953 36.5309 36.6382 36.9907L36.8351 37.177C37.4192 37.6861 38.0467 37.8625 38.7576 38.1054C38.7943 38.111 38.8276 38.13 38.8511 38.1586C38.8716 38.1889 38.881 38.2254 38.8778 38.2618C38.8807 38.2824 38.8792 38.3035 38.8735 38.3235C38.8677 38.3436 38.8578 38.3622 38.8444 38.3782ZM39.9259 37.949C39.9145 37.9589 39.9013 37.9664 39.8869 37.9709C39.8725 37.9755 39.8574 37.9771 39.8424 37.9756C39.3869 37.9471 38.9468 37.7999 38.5661 37.5489C38.1854 37.2978 37.8774 36.9516 37.6729 36.5448C37.6695 36.537 37.6677 36.5285 37.6677 36.5199C37.6677 36.5113 37.6695 36.5028 37.6729 36.4949C37.6769 36.4772 37.6876 36.4616 37.7029 36.4517C37.7204 36.4468 37.7389 36.4468 37.7563 36.4517C37.7709 36.4549 37.7839 36.4631 37.793 36.475C38.0144 36.8244 38.3137 37.1182 38.6675 37.3334C39.022 37.5462 39.4203 37.6759 39.8324 37.7127C39.8592 37.7142 39.885 37.7233 39.9067 37.739C39.9284 37.7546 39.9452 37.7762 39.9551 37.801C39.9649 37.8259 39.9674 37.853 39.9622 37.8793C39.957 37.9055 39.9444 37.9297 39.9259 37.949ZM65.1257 14.0383C65.1245 14.0798 65.1092 14.1197 65.0823 14.1514C65.0533 14.1819 65.0141 14.2009 64.9721 14.2047C63.7538 14.2188 62.5511 14.4803 61.4375 14.9733C61.4227 14.9796 61.4066 14.9824 61.3906 14.9816C61.3745 14.9808 61.3588 14.9764 61.3447 14.9687C61.3306 14.961 61.3184 14.9503 61.309 14.9373C61.2997 14.9242 61.2934 14.9092 61.2906 14.8934C61.2868 14.8754 61.2894 14.8566 61.2979 14.8402C61.3064 14.8238 61.3204 14.8109 61.3374 14.8036C62.4639 14.2261 63.7059 13.9078 64.9721 13.8719C65.0141 13.8758 65.0533 13.8947 65.0823 13.9252C65.1102 13.9563 65.1257 13.9966 65.1257 14.0383ZM66.1804 13.2131C66.15 13.2335 66.1135 13.2429 66.0769 13.2397C65.6096 13.2697 65.1557 13.2231 64.6918 13.2896C64.2358 13.3509 63.788 13.4625 63.3567 13.6224C63.2499 13.6623 63.1898 13.5691 63.1965 13.4826C63.1976 13.4551 63.2063 13.4285 63.2216 13.4056C63.2369 13.3827 63.2582 13.3645 63.2833 13.3529C64.1277 13.0002 65.2191 12.724 66.1237 12.9536C66.1607 12.9604 66.194 12.9805 66.2171 13.0101C66.2294 13.0243 66.2375 13.0416 66.2405 13.0601C66.2454 13.0786 66.2454 13.0981 66.2405 13.1166C66.2382 13.1361 66.2317 13.1549 66.2213 13.1716C66.2109 13.1883 66.1969 13.2024 66.1804 13.2131ZM84.134 29.4974C84.1221 29.5228 84.1037 29.5446 84.0806 29.5606C84.056 29.5739 84.0285 29.5807 84.0005 29.5806C82.9725 29.4209 82.3316 28.2097 82.2649 27.2714C82.2644 27.2624 82.2658 27.2533 82.269 27.2449C82.2721 27.2364 82.277 27.2287 82.2832 27.2222C82.2895 27.2156 82.297 27.2104 82.3053 27.2069C82.3136 27.2033 82.3226 27.2015 82.3316 27.2015C82.348 27.1986 82.3649 27.2022 82.3786 27.2115C82.3923 27.2208 82.4018 27.2352 82.4051 27.2514C82.4693 27.6067 82.6032 27.9459 82.7989 28.2496C82.8642 28.3514 82.9355 28.4492 83.0126 28.5424C83.337 28.8613 83.707 29.1304 84.1107 29.341C84.1303 29.3615 84.1441 29.3867 84.1507 29.4142C84.1537 29.443 84.1479 29.472 84.134 29.4974ZM85.0052 28.8519C85.0083 28.87 85.0075 28.8885 85.0029 28.9063C84.9983 28.9241 84.99 28.9407 84.9785 28.955C84.9668 28.9689 84.9533 28.9812 84.9384 28.9916C84.9219 29.0006 84.9037 29.0063 84.885 29.0083C84.5317 29.0601 84.1714 28.9869 83.8666 28.8015C83.5618 28.6162 83.3316 28.3303 83.2161 27.9934C83.2145 27.9835 83.2145 27.9734 83.2161 27.9635C83.2161 27.8969 83.333 27.8603 83.3663 27.9269C83.4935 28.2045 83.7079 28.4333 83.9771 28.5785C84.2463 28.7238 84.5556 28.7777 84.8583 28.7321C84.8765 28.729 84.8951 28.7297 84.9129 28.7343C84.9307 28.7389 84.9474 28.7472 84.9618 28.7587C84.9767 28.7689 84.9893 28.7822 84.9985 28.7977C85.0077 28.8132 85.0134 28.8306 85.0152 28.8486L85.0052 28.8519Z" fill="white"/>
<path d="M11.9257 51.8808L10.367 48.58C10.3483 48.5414 10.3397 48.4986 10.3422 48.4557C10.3447 48.4128 10.3581 48.3713 10.3811 48.335C10.4042 48.2987 10.4361 48.2688 10.4739 48.2483C10.5117 48.2277 10.5542 48.217 10.5973 48.2174H22.1825C22.2313 48.2176 22.2789 48.2319 22.3198 48.2584C22.3606 48.285 22.3929 48.3227 22.4128 48.3671L23.9448 51.6679C23.962 51.7067 23.9692 51.7493 23.9657 51.7916C23.9623 51.8339 23.9484 51.8747 23.9252 51.9104C23.9021 51.946 23.8704 51.9753 23.833 51.9957C23.7956 52.0161 23.7538 52.027 23.7112 52.0272H21.8287C21.7873 52.027 21.7465 52.037 21.7099 52.0561C21.6732 52.0752 21.6418 52.103 21.6184 52.137C18.7906 56.0965 17.298 60.8493 17.3562 65.7095C17.3423 66.399 17.3802 67.0886 17.4696 67.7725C17.6204 69.3924 18.1596 70.9524 19.0417 72.321C19.4255 72.9067 19.6291 73.2128 19.6559 73.2361C19.6826 73.2594 19.7326 73.3259 19.8094 73.429C21.0844 74.9552 22.4006 75.9612 23.7579 76.447C23.7559 76.4524 23.7559 76.4583 23.7579 76.4636C23.793 76.4667 23.8265 76.4794 23.8547 76.5002C23.8818 76.5236 23.9158 76.5376 23.9515 76.5402C24.5934 76.8045 25.2663 76.9868 25.9541 77.0825C26.0388 77.1204 26.1324 77.1342 26.2245 77.1225C26.6418 77.1962 27.0663 77.2218 27.4895 77.199C27.9586 77.2052 28.4275 77.1729 28.8913 77.1025C29.1509 77.0596 29.4074 76.9995 29.659 76.9228C29.717 76.9049 29.7793 76.9078 29.8354 76.9309C29.8915 76.954 29.9377 76.9958 29.9661 77.0493L31.5615 80.1903C31.5786 80.225 31.5877 80.2631 31.5881 80.3018C31.5885 80.3405 31.5803 80.3787 31.564 80.4138C31.5477 80.4489 31.5237 80.4799 31.4938 80.5046C31.4639 80.5292 31.4289 80.5469 31.3913 80.5563C29.9977 80.8708 28.5745 81.0369 27.1457 81.0521C26.4752 81.0531 25.8056 81.0019 25.1431 80.8991C22.2557 80.3736 19.6184 78.9253 17.6299 76.7731C14.9196 73.8893 13.5645 70.1316 13.5645 65.4999C13.5071 60.94 14.6095 56.44 16.7687 52.4199C16.7903 52.3812 16.8014 52.3376 16.8008 52.2934C16.8002 52.2491 16.788 52.2058 16.7653 52.1678C16.7427 52.1297 16.7105 52.0982 16.6718 52.0765C16.6332 52.0548 16.5895 52.0435 16.5451 52.0439H12.1493C12.1004 52.0404 12.0535 52.0233 12.0139 51.9945C11.9744 51.9656 11.9438 51.9262 11.9257 51.8808Z" fill="white"/>
<path d="M37.8732 71.579V62.2457C37.8733 62.2103 37.8665 62.1752 37.8531 62.1425C37.5194 61.3339 36.962 60.918 36.1843 60.8914C35.8165 60.8684 35.4511 60.9641 35.1421 61.1642C34.8331 61.3644 34.597 61.6584 34.4687 62.0028C34.4655 62.0259 34.4655 62.0494 34.4687 62.0726L34.3952 62.9178C34.0882 65.6729 33.0012 67.6693 31.1343 68.9071C29.9199 69.6679 28.4657 69.953 27.0527 69.7071C25.6397 69.4613 24.3683 68.7021 23.4842 67.5761C23.4469 67.5273 23.4288 67.4666 23.4331 67.4054C23.4374 67.3442 23.4639 67.2866 23.5076 67.2434L25.6404 65.0873C25.6845 65.0448 25.7424 65.0194 25.8036 65.0158C25.8648 65.0121 25.9253 65.0304 25.9742 65.0673C26.33 65.36 26.7227 65.605 27.1424 65.796C27.3344 65.8884 27.5434 65.9404 27.7565 65.9491C28.1073 65.9736 28.4597 65.9512 28.8046 65.8825C28.8341 65.8764 28.8624 65.8651 28.888 65.8492C28.9415 65.8175 28.9918 65.7808 29.0382 65.7394C29.1236 65.6673 29.2152 65.6027 29.3119 65.5464C29.486 65.4289 29.6366 65.2799 29.7558 65.1072C29.9659 64.8618 30.1217 64.5749 30.2131 64.2654C30.4142 63.7483 30.5564 63.2103 30.637 62.6616C30.6306 62.5647 30.6431 62.4676 30.6737 62.3754C30.71 62.1556 30.7235 61.9326 30.7137 61.7099C30.7137 60.0751 30.1764 58.804 29.1016 57.8967C28.5409 57.4409 27.6564 57.0948 26.4581 56.8653C26.3913 56.8714 26.324 56.8623 26.2612 56.8386C26.2379 56.8355 26.2144 56.8355 26.1911 56.8386L25.4668 56.8087C25.4189 56.8065 25.3726 56.791 25.3331 56.764C25.2936 56.7369 25.2624 56.6994 25.2432 56.6556L23.9649 53.6942C23.9426 53.6429 23.9381 53.5856 23.952 53.5315C23.9659 53.4773 23.9974 53.4292 24.0416 53.3948C24.3886 53.1122 24.6981 52.7868 24.9628 52.4265C24.9895 52.3884 25.0052 52.3437 25.0084 52.2973C25.0115 52.251 25.0019 52.2046 24.9807 52.1632C24.9594 52.1219 24.9273 52.087 24.8877 52.0625C24.8481 52.0379 24.8025 52.0246 24.7559 52.0239H22.5163C22.4653 52.0237 22.4156 52.0084 22.3734 51.9799C22.3312 51.9515 22.2985 51.9112 22.2793 51.8642L20.9442 48.5634C20.9323 48.5257 20.9294 48.4858 20.9356 48.4467C20.9418 48.4077 20.9569 48.3706 20.9799 48.3384C21.0028 48.3062 21.0329 48.2797 21.0679 48.261C21.1028 48.2423 21.1416 48.2319 21.1812 48.2307H43.2102C43.2627 48.2314 43.3138 48.2481 43.3567 48.2784C43.3996 48.3087 43.4323 48.3512 43.4505 48.4004L44.632 51.7011C44.6447 51.7391 44.6482 51.7795 44.6421 51.8191C44.6361 51.8587 44.6207 51.8963 44.5972 51.9287C44.5738 51.9612 44.5429 51.9877 44.5072 52.006C44.4714 52.0243 44.4319 52.0338 44.3917 52.0339H41.9185C41.8509 52.0347 41.7864 52.0621 41.7389 52.1101C41.6914 52.158 41.6648 52.2227 41.6648 52.2901V70.065C41.6651 70.1138 41.6514 70.1616 41.6254 70.2028C41.5994 70.2441 41.5621 70.2771 41.5179 70.298L38.2303 71.8186C38.191 71.8361 38.1478 71.8434 38.1049 71.8397C38.062 71.836 38.0208 71.8215 37.9851 71.7976C37.9493 71.7736 37.9203 71.741 37.9007 71.7027C37.8812 71.6645 37.8717 71.6219 37.8732 71.579ZM33.464 57.4841C33.4936 57.5431 33.5445 57.5886 33.6065 57.6114C33.6685 57.6343 33.7369 57.6328 33.7978 57.6073C34.9643 57.0423 36.3066 56.9563 37.536 57.3677C37.5741 57.3803 37.6147 57.3838 37.6544 57.3777C37.6941 57.3717 37.7318 57.3564 37.7644 57.333C37.797 57.3096 37.8235 57.2788 37.8418 57.2432C37.8602 57.2076 37.8698 57.1681 37.8698 57.1281V52.2801C37.8698 52.2127 37.8432 52.1481 37.7957 52.1001C37.7482 52.0521 37.6837 52.0248 37.6161 52.0239H29.5055C29.4523 52.024 29.4005 52.0407 29.3573 52.0718C29.3142 52.1028 29.282 52.1466 29.2652 52.1969C29.1334 52.5674 28.9819 52.9306 28.8112 53.285C28.7944 53.3171 28.7848 53.3524 28.783 53.3886C28.7813 53.4248 28.7874 53.4609 28.8011 53.4945C28.8147 53.528 28.8356 53.5582 28.8621 53.5829C28.8886 53.6077 28.9202 53.6263 28.9548 53.6377C29.9255 53.9471 30.8244 54.4467 31.5988 55.1072C32.3731 55.7678 33.0073 56.5759 33.464 57.4841Z" fill="white"/>
<path d="M58.6739 71.8053C58.635 71.8239 58.5921 71.8324 58.5491 71.83C58.5061 71.8275 58.4644 71.8141 58.428 71.7912C58.3916 71.7682 58.3617 71.7364 58.3411 71.6987C58.3204 71.661 58.3097 71.6186 58.31 71.5757V68.957H58.2733C57.0962 67.8656 56.086 67.1647 55.2427 66.8541H55.226C54.4869 66.5321 53.7162 66.2879 52.9263 66.1254C52.388 65.9925 51.84 65.9024 51.2875 65.8559C51.2073 65.866 51.126 65.8521 51.0538 65.816C50.9006 65.8188 50.7474 65.8065 50.5966 65.7794C49.2248 65.6629 47.8463 65.6097 46.4711 65.623C46.4061 65.624 46.3431 65.6 46.2953 65.556C46.2475 65.5121 46.2184 65.4515 46.2141 65.3867C46.104 63.7064 46.0306 62.6316 45.9872 62.1592C45.9839 62.124 45.988 62.0886 45.9993 62.0552C46.0106 62.0218 46.0288 61.9911 46.0527 61.9651C46.0766 61.9391 46.1056 61.9183 46.138 61.9042C46.1704 61.8901 46.2055 61.8828 46.2408 61.883C46.3935 61.8857 46.5462 61.879 46.6981 61.863C46.8089 61.8508 46.9204 61.8453 47.0319 61.8464C47.129 61.8464 47.2256 61.833 47.3189 61.8065C49.1814 61.4449 50.5743 60.7794 51.4977 59.81C51.516 59.7958 51.5289 59.7759 51.5345 59.7534C51.5345 59.7534 51.5345 59.7335 51.5745 59.7335C51.8308 59.2654 51.9619 58.7394 51.955 58.2062C51.955 56.476 50.374 55.6097 47.2121 55.6075L45.9338 55.6741C45.8929 55.6772 45.8519 55.67 45.8145 55.6531C45.7772 55.6362 45.7447 55.6103 45.7201 55.5776L44.365 53.834C44.3278 53.7852 44.3096 53.7245 44.3139 53.6633C44.3182 53.602 44.3447 53.5445 44.3884 53.5013L45.3897 52.503C45.4251 52.4672 45.4491 52.4218 45.4587 52.3725C45.4684 52.3232 45.4633 52.2722 45.4441 52.2257C45.4249 52.1793 45.3924 52.1395 45.3507 52.1113C45.309 52.0831 45.2599 52.0677 45.2095 52.0672H43.5907C43.5384 52.0671 43.4874 52.0511 43.4445 52.0214C43.4015 51.9917 43.3687 51.9496 43.3504 51.9008L42.1555 48.6C42.1435 48.562 42.1406 48.5218 42.147 48.4825C42.1534 48.4433 42.1688 48.406 42.1921 48.3737C42.2155 48.3414 42.246 48.315 42.2813 48.2965C42.3167 48.278 42.3559 48.268 42.3958 48.2673H73.2163C73.2675 48.2666 73.3176 48.2815 73.36 48.3101C73.4023 48.3386 73.4349 48.3794 73.4533 48.427L74.7884 51.7278C74.801 51.7655 74.8045 51.8056 74.7986 51.8449C74.7927 51.8843 74.7776 51.9216 74.7546 51.954C74.7315 51.9865 74.701 52.013 74.6658 52.0315C74.6305 52.05 74.5913 52.0599 74.5514 52.0605H50.7835C50.7171 52.0606 50.6535 52.0869 50.6066 52.1337L50.1927 52.5263C50.1574 52.5593 50.1322 52.6016 50.1202 52.6483C50.1082 52.695 50.1098 52.7441 50.1249 52.79C50.14 52.8358 50.1679 52.8763 50.2053 52.9068C50.2428 52.9374 50.2882 52.9566 50.3362 52.9622C51.1419 53.0329 51.9309 53.2329 52.6726 53.5545C53.6573 54.051 54.452 54.855 54.9356 55.8438C55.365 56.7393 55.5874 57.7194 55.5865 58.712C55.5994 59.4246 55.47 60.1326 55.206 60.7949C54.9947 61.3266 54.7007 61.8218 54.3348 62.2623C54.306 62.295 54.2862 62.3345 54.2771 62.377C54.2681 62.4195 54.2703 62.4637 54.2833 62.5052C54.2964 62.5466 54.32 62.584 54.3518 62.6138C54.3837 62.6435 54.4226 62.6646 54.465 62.6749C55.6685 62.9874 56.8329 63.4338 57.9362 64.0059C57.9753 64.0257 58.0187 64.0353 58.0625 64.0337C58.1063 64.0321 58.149 64.0193 58.1864 63.9967C58.2239 63.974 58.2549 63.9421 58.2765 63.9042C58.2982 63.8662 58.3097 63.8233 58.31 63.7796V53.1186C58.31 53.0515 58.3368 52.9872 58.3843 52.9398C58.4319 52.8924 58.4964 52.8657 58.5637 52.8657H58.8975C60.9995 52.8361 63.1002 52.9886 65.1757 53.3216C68.1174 53.9116 70.1501 55.3912 71.2738 57.7603C71.73 58.7142 71.965 59.7582 71.9613 60.8149C71.9613 63.4768 70.96 65.2603 68.9574 66.1653C68.0798 66.5185 67.1434 66.7036 66.1971 66.711C65.4521 66.7244 64.7189 66.5246 64.0843 66.1354C63.8079 65.9467 63.5427 65.7423 63.2899 65.5232C63.2625 65.499 63.2406 65.4693 63.2256 65.436C63.2107 65.4027 63.203 65.3666 63.2031 65.3302V61.9861C63.2032 61.934 63.2192 61.8832 63.2491 61.8404C63.2789 61.7976 63.3211 61.7648 63.37 61.7466L66.621 60.5587C66.6591 60.5468 66.6994 60.5439 66.7388 60.5502C66.7782 60.5566 66.8156 60.572 66.848 60.5953C66.8804 60.6185 66.9069 60.6489 66.9254 60.6842C66.9439 60.7194 66.954 60.7585 66.9548 60.7982V62.7048C66.9537 62.7454 66.9625 62.7857 66.9804 62.8222C66.9983 62.8586 67.0247 62.8903 67.0574 62.9144C67.0902 62.9386 67.1283 62.9545 67.1685 62.9609C67.2087 62.9673 67.2499 62.9639 67.2885 62.9511C67.6415 62.8291 67.935 62.5782 68.1096 62.249C68.1165 62.2375 68.1221 62.2252 68.1263 62.2124L68.4601 61.4271V61.304C68.5206 60.9637 68.5463 60.6181 68.5368 60.2725C68.41 58.1829 66.5364 56.9462 62.9161 56.5625H62.352C62.2844 56.5625 62.2196 56.589 62.1715 56.6363C62.1234 56.6837 62.0959 56.748 62.095 56.8154V70.0451C62.0952 70.0934 62.0819 70.1408 62.0565 70.1819C62.0312 70.2231 61.9948 70.2563 61.9515 70.278L58.6739 71.8053Z" fill="white"/>
<path d="M75.0988 47.6683C75.0988 47.269 75.0988 46.8697 75.0621 46.5071C75.0604 46.4916 75.0604 46.476 75.0621 46.4605C75.1916 45.3247 75.5828 44.2342 76.2053 43.2743C76.8277 42.3144 77.6645 41.511 78.6502 40.927C80.7471 39.6106 83.1815 38.9276 85.6594 38.9605C87.9446 38.9558 90.2098 39.3837 92.3348 40.2216C94.8248 41.1089 97.2724 42.0894 99.6778 43.163C99.7103 43.1777 99.7393 43.199 99.763 43.2256C99.7866 43.2522 99.8044 43.2835 99.8151 43.3174C99.8258 43.3513 99.8292 43.3871 99.8251 43.4224C99.821 43.4577 99.8095 43.4918 99.7913 43.5224L98.1291 46.3274C98.0962 46.3828 98.0439 46.424 97.9822 46.4431C97.9205 46.4621 97.8539 46.4577 97.7954 46.4305C95.8127 45.5432 93.7222 44.7069 91.5238 43.9217C89.4708 43.0965 87.2754 42.6805 85.0619 42.6972H85.0252C82.6688 42.9811 80.8987 43.7065 79.7149 44.8733C79.4266 45.1741 79.1938 45.5233 79.0273 45.9048C78.9472 46.0545 78.9105 46.6435 78.9105 47.6617V47.9511C78.9105 48.0185 78.9371 48.0832 78.9846 48.1312C79.0321 48.1791 79.0966 48.2065 79.1642 48.2074H80.4625C80.5135 48.2076 80.5632 48.2229 80.6054 48.2513C80.6476 48.2797 80.6803 48.32 80.6995 48.3671L82.0346 51.6679C82.0497 51.7065 82.0552 51.7482 82.0506 51.7895C82.046 51.8307 82.0314 51.8702 82.0081 51.9045C81.9848 51.9389 81.9535 51.9671 81.9168 51.9868C81.8801 52.0064 81.8392 52.0168 81.7976 52.0172H79.1608C79.0936 52.0172 79.029 52.0439 78.9815 52.0913C78.9339 52.1387 78.9072 52.203 78.9072 52.2701V70.0484C78.9072 70.0967 78.8934 70.1439 78.8674 70.1846C78.8414 70.2253 78.8042 70.2577 78.7603 70.278L75.476 71.7986C75.4372 71.8173 75.3942 71.8258 75.3512 71.8233C75.3082 71.8208 75.2666 71.8075 75.2301 71.7845C75.1937 71.7615 75.1638 71.7297 75.1432 71.692C75.1225 71.6543 75.1119 71.612 75.1122 71.569V52.2701C75.1122 52.2027 75.0856 52.1381 75.0381 52.0901C74.9906 52.0422 74.9261 52.0148 74.8585 52.0139H73.5701C73.5168 52.0143 73.4648 51.9978 73.4215 51.9667C73.3783 51.9355 73.3462 51.8915 73.3298 51.8409L72.2017 48.5401C72.189 48.5021 72.1855 48.4617 72.1916 48.4221C72.1976 48.3825 72.213 48.345 72.2365 48.3125C72.26 48.28 72.2908 48.2535 72.3265 48.2353C72.3623 48.217 72.4018 48.2074 72.442 48.2074H74.8585C74.9258 48.2074 74.9903 48.1807 75.0379 48.1333C75.0854 48.0859 75.1122 48.0215 75.1122 47.9545L75.0988 47.6683Z" fill="white"/>
<path d="M94.8114 71.579V68.1418C94.811 68.0986 94.7998 68.0562 94.7788 68.0185C94.7578 67.9807 94.7277 67.9488 94.6913 67.9255C93.0062 66.8519 91.1735 66.0281 89.2508 65.4799C88.082 65.0733 86.8595 64.8412 85.6227 64.7911H85.5926L85.0319 64.8277L84.2308 64.861C84.1934 64.8625 84.156 64.8559 84.1215 64.8415C84.0869 64.8271 84.0558 64.8054 84.0306 64.7778L81.7309 62.3055C81.6905 62.2595 81.6682 62.2004 81.6682 62.1392C81.6682 62.078 81.6905 62.0189 81.7309 61.9728C84.8616 58.0931 89.1751 54.9354 94.6712 52.4997C94.7166 52.4798 94.7553 52.4472 94.7825 52.4059C94.8098 52.3645 94.8245 52.3162 94.8248 52.2668C94.8239 52.1994 94.7964 52.1351 94.7483 52.0878C94.7002 52.0404 94.6353 52.0139 94.5678 52.0139H80.7729C80.7251 52.0135 80.6782 51.9999 80.6376 51.9746C80.597 51.9494 80.5641 51.9135 80.5426 51.8708L78.9172 48.58C78.8977 48.5412 78.8885 48.4981 78.8906 48.4547C78.8927 48.4114 78.906 48.3693 78.9291 48.3325C78.9523 48.2957 78.9845 48.2655 79.0227 48.2448C79.061 48.224 79.1039 48.2134 79.1475 48.214H100.155C100.205 48.2143 100.253 48.2289 100.295 48.2561C100.336 48.2833 100.369 48.3218 100.389 48.3671L101.807 51.6679C101.825 51.7065 101.832 51.7489 101.829 51.7911C101.825 51.8333 101.811 51.874 101.788 51.9095C101.765 51.9449 101.733 51.9739 101.695 51.9939C101.658 52.0139 101.616 52.0242 101.574 52.0239H98.8701C98.8028 52.0239 98.7383 52.0505 98.6907 52.098C98.6431 52.1454 98.6164 52.2097 98.6164 52.2768V70.0551C98.6169 70.1034 98.6032 70.1508 98.5772 70.1916C98.5511 70.2323 98.5137 70.2647 98.4696 70.2846L95.1719 71.8153C95.1327 71.8334 95.0895 71.8413 95.0464 71.8381C95.0033 71.835 94.9617 71.8209 94.9256 71.7972C94.8895 71.7736 94.8601 71.7411 94.8401 71.7029C94.8201 71.6647 94.8102 71.6221 94.8114 71.579ZM90.8529 71.1365C90.8356 71.1692 90.8114 71.1978 90.782 71.2203C90.7527 71.2428 90.7187 71.2587 90.6826 71.267C90.6464 71.2752 90.6089 71.2755 90.5726 71.2679C90.5364 71.2603 90.5021 71.245 90.4724 71.223C90.1069 70.9561 89.7269 70.7095 89.3342 70.4843L89.0438 70.3046H89.0138C88.1579 69.9051 87.2283 69.6864 86.2835 69.6624C86.2445 69.6602 86.2065 69.6491 86.1724 69.63C86.1383 69.6109 86.109 69.5842 86.0868 69.5522C86.0646 69.5201 86.05 69.4833 86.0442 69.4448C86.0384 69.4062 86.0415 69.3669 86.0532 69.3297L87.2348 66.2585C87.254 66.2069 87.2894 66.1629 87.3357 66.1329C87.382 66.103 87.4367 66.0887 87.4918 66.0921C89.2371 66.2142 90.9051 66.8577 92.2781 67.9388C92.325 67.9751 92.3575 68.0268 92.3697 68.0847C92.3819 68.1426 92.3731 68.2029 92.3448 68.2549L90.8529 71.1365ZM94.8114 63.2206V56.9784C94.8114 56.9349 94.8002 56.8921 94.779 56.8541C94.7577 56.8161 94.7272 56.784 94.6901 56.7611C94.653 56.7381 94.6107 56.7249 94.5671 56.7228C94.5235 56.7206 94.4801 56.7296 94.4409 56.7488C92.129 57.8533 89.9566 59.2271 87.9691 60.8415C87.9324 60.8728 87.9054 60.9137 87.891 60.9595C87.8766 61.0054 87.8754 61.0544 87.8876 61.1009C87.8997 61.1474 87.9248 61.1895 87.9599 61.2225C87.9949 61.2555 88.0386 61.278 88.0859 61.2874C90.2905 61.7121 92.4249 62.4411 94.4276 63.4535C94.4674 63.4761 94.5126 63.4876 94.5584 63.487C94.6043 63.4863 94.6491 63.4734 94.6882 63.4496C94.7274 63.4259 94.7595 63.3921 94.7811 63.3518C94.8028 63.3116 94.8132 63.2662 94.8114 63.2206Z" fill="white"/>
<path d="M62.4622 78.7995L58.5537 76.1142C58.5097 76.0832 58.4764 76.0394 58.4585 75.9887C58.4406 75.938 58.4388 75.8831 58.4536 75.8314L59.1879 73.3092C59.1997 73.2701 59.2208 73.2344 59.2494 73.205C59.2779 73.1756 59.3131 73.1535 59.352 73.1405C59.3909 73.1275 59.4323 73.1239 59.4729 73.1301C59.5134 73.1363 59.5519 73.1521 59.5851 73.1761L63.5436 76.0643C63.5877 76.0958 63.6203 76.1408 63.6366 76.1924C63.6528 76.244 63.6518 76.2995 63.6337 76.3505L62.8494 78.6797C62.8361 78.7166 62.8144 78.7499 62.786 78.777C62.7576 78.8041 62.7233 78.8242 62.6857 78.8359C62.6482 78.8475 62.6085 78.8502 62.5697 78.8439C62.5309 78.8376 62.4941 78.8224 62.4622 78.7995Z" fill="white"/>
</g>
<defs>
<clipPath id="clip0_1_85">
<rect width="114" height="114" fill="white"/>
</clipPath>
</defs>
</svg>
